0
SECTION
2
HEADER
9
$INSUNITS
70
4
9
$ACADVER
1
AC1014
9
$HANDSEED
5
FFFF
0
ENDSEC
0
SECTION
2
TABLES
0
TABLE
2
VPORT
5
8
100
AcDbSymbolTable
0
ENDTAB
0
TABLE
2
LTYPE
5
5
100
AcDbSymbolTable
0
LTYPE
5
14
100
AcDbSymbolTableRecord
100
AcDbLinetypeTableRecord
2
BYBLOCK
70
0
0
LTYPE
5
15
100
AcDbSymbolTableRecord
100
AcDbLinetypeTableRecord
2
BYLAYER
70
0
0
ENDTAB
0
TABLE
2
LAYER
5
2
100
AcDbSymbolTable
70
2
0
LAYER
5
50
100
AcDbSymbolTableRecord
100
AcDbLayerTableRecord
2
0
70
0
6
CONTINUOUS
0
ENDTAB
0
TABLE
2
STYLE
5
3
100
AcDbSymbolTable
70
1
0
STYLE
5
11
100
AcDbSymbolTableRecord
100
AcDbTextStyleTableRecord
2
STANDARD
70
0
0
ENDTAB
0
TABLE
2
VIEW
5
6
100
AcDbSymbolTable
70
0
0
ENDTAB
0
TABLE
2
UCS
5
7
100
AcDbSymbolTable
70
0
0
ENDTAB
0
TABLE
2
APPID
5
9
100
AcDbSymbolTable
70
2
0
APPID
5
12
100
AcDbSymbolTableRecord
100
AcDbRegAppTableRecord
2
ACAD
70
0
0
ENDTAB
0
TABLE
2
DIMSTYLE
5
A
100
AcDbSymbolTable
70
1
0
ENDTAB
0
TABLE
2
BLOCK_RECORD
5
1
100
AcDbSymbolTable
70
1
0
BLOCK_RECORD
5
1F
100
AcDbSymbolTableRecord
100
AcDbBlockTableRecord
2
*MODEL_SPACE
0
BLOCK_RECORD
5
1B
100
AcDbSymbolTableRecord
100
AcDbBlockTableRecord
2
*PAPER_SPACE
0
ENDTAB
0
ENDSEC
0
SECTION
2
BLOCKS
0
BLOCK
5
20
100
AcDbEntity
100
AcDbBlockBegin
2
*MODEL_SPACE
0
ENDBLK
5
21
100
AcDbEntity
100
AcDbBlockEnd
0
BLOCK
5
1C
100
AcDbEntity
100
AcDbBlockBegin
2
*PAPER_SPACE
0
ENDBLK
5
1D
100
AcDbEntity
100
AcDbBlockEnd
0
ENDSEC
0
SECTION
2
ENTITIES
0
LWPOLYLINE
5
100
100
AcDbEntity
8
0
100
AcDbPolyline
90
38
70
1
43
0.0
10
47.700000000000003
20
31.499999999999993
10
47.699999999999996
20
6.6613381477509392e-15
10
70.000000000000014
20
6.6613381477509392e-15
10
70.000000000000014
20
70
10
47.699999999999996
20
70
10
47.700000000000017
20
38.500000000000007
42
-0.41421356237309243
10
46.700000000000003
20
37.500000000000007
10
43.700000000000003
20
37.500000000000007
42
-0.41421356237309509
10
42.700000000000003
20
38.500000000000007
10
42.700000000000003
20
47.749000000000009
10
27.300000000000004
20
47.749000000000009
10
27.300000000000004
20
38.500000000000007
42
-0.41421356237309637
10
26.300000000000008
20
37.500000000000007
10
23.300000000000011
20
37.500000000000007
42
-0.4142135623730977
10
22.300000000000008
20
38.500000000000014
10
22.300000000000018
20
70
10
8.8817841970012523e-15
20
70.000000000000014
10
0
20
1.1102230246251565e-14
10
22.300000000000004
20
8.8817841970012523e-15
10
22.300000000000008
20
31.5
42
-0.41421356237309637
10
23.300000000000004
20
32.5
10
26.300000000000008
20
32.5
42
-0.4142135623730937
10
27.300000000000008
20
31.499999999999993
10
27.300000000000004
20
25.211000000000006
42
0.41421356237309509
10
29.300000000000004
20
23.211000000000006
10
31.696000000000005
20
23.211000000000006
42
-0.41421356237309509
10
31.950000000000003
20
22.957000000000004
10
31.950000000000003
20
22.505000000000006
42
0.41421356237309509
10
32.204000000000008
20
22.251000000000005
10
37.796000000000006
20
22.251000000000005
42
0.41421356237309509
10
38.050000000000004
20
22.505000000000006
10
38.050000000000004
20
22.957000000000004
42
-0.41421356237309509
10
38.304000000000002
20
23.211000000000006
10
40.700000000000003
20
23.211000000000006
42
0.41421356237309509
10
42.700000000000003
20
25.211000000000006
10
42.700000000000003
20
31.499999999999993
42
-0.41421356237309509
10
43.70000000000001
20
32.5
10
46.700000000000003
20
32.499999999999993
42
-0.4142135623730937
0
LINE
5
101
100
AcDbEntity
8
0
100
AcDbLine
10
70.000000000000014
20
70
30
0
11
66.150000000000006
21
70
31
0
0
ARC
5
102
100
AcDbEntity
8
0
100
AcDbCircle
10
38.304000000000002
20
22.957000000000004
30
0
40
0.25399999999999867
210
0
220
-0
230
1
100
AcDbArc
50
90
51
180
0
LINE
5
103
100
AcDbEntity
8
0
100
AcDbLine
10
38.304000000000002
20
23.211000000000006
30
0
11
39.300000000000004
21
23.211000000000006
31
0
0
LINE
5
104
100
AcDbEntity
8
0
100
AcDbLine
10
31.696000000000005
20
23.211000000000006
30
0
11
30.700000000000003
21
23.211000000000006
31
0
0
ARC
5
105
100
AcDbEntity
8
0
100
AcDbCircle
10
32.204000000000008
20
22.505000000000006
30
0
40
0.25400000000000311
210
0
220
0
230
1
100
AcDbArc
50
180
51
270
0
LINE
5
106
100
AcDbEntity
8
0
100
AcDbLine
10
31.950000000000003
20
22.505000000000006
30
0
11
31.950000000000003
21
22.957000000000004
31
0
0
LINE
5
107
100
AcDbEntity
8
0
100
AcDbLine
10
38.050000000000004
20
22.505000000000006
30
0
11
38.050000000000004
21
22.957000000000004
31
0
0
LINE
5
108
100
AcDbEntity
8
0
100
AcDbLine
10
32.204000000000008
20
22.251000000000005
30
0
11
37.796000000000006
21
22.251000000000005
31
0
0
ARC
5
109
100
AcDbEntity
8
0
100
AcDbCircle
10
37.796000000000006
20
22.505000000000006
30
0
40
0.25400000000000311
210
0
220
0
230
1
100
AcDbArc
50
-90
51
0
0
ARC
5
110
100
AcDbEntity
8
0
100
AcDbCircle
10
31.696000000000005
20
22.957000000000004
30
0
40
0.25399999999999867
210
0
220
0
230
1
100
AcDbArc
50
0
51
90
0
ENDSEC
0
SECTION
2
OBJECTS
0
DICTIONARY
5
C
100
AcDbDictionary
3
ACAD_GROUP
350
D
3
ACAD_MLINESTYLE
350
17
0
DICTIONARY
5
D
100
AcDbDictionary
0
DICTIONARY
5
1A
330
C
100
AcDbDictionary
0
DICTIONARY
5
17
100
AcDbDictionary
0
ENDSEC
0
EOF
