0
SECTION
2
HEADER
9
$INSUNITS
70
4
9
$ACADVER
1
AC1014
9
$HANDSEED
5
FFFF
0
ENDSEC
0
SECTION
2
TABLES
0
TABLE
2
VPORT
5
8
100
AcDbSymbolTable
0
ENDTAB
0
TABLE
2
LTYPE
5
5
100
AcDbSymbolTable
0
LTYPE
5
14
100
AcDbSymbolTableRecord
100
AcDbLinetypeTableRecord
2
BYBLOCK
70
0
0
LTYPE
5
15
100
AcDbSymbolTableRecord
100
AcDbLinetypeTableRecord
2
BYLAYER
70
0
0
ENDTAB
0
TABLE
2
LAYER
5
2
100
AcDbSymbolTable
70
2
0
LAYER
5
50
100
AcDbSymbolTableRecord
100
AcDbLayerTableRecord
2
0
70
0
6
CONTINUOUS
0
ENDTAB
0
TABLE
2
STYLE
5
3
100
AcDbSymbolTable
70
1
0
STYLE
5
11
100
AcDbSymbolTableRecord
100
AcDbTextStyleTableRecord
2
STANDARD
70
0
0
ENDTAB
0
TABLE
2
VIEW
5
6
100
AcDbSymbolTable
70
0
0
ENDTAB
0
TABLE
2
UCS
5
7
100
AcDbSymbolTable
70
0
0
ENDTAB
0
TABLE
2
APPID
5
9
100
AcDbSymbolTable
70
2
0
APPID
5
12
100
AcDbSymbolTableRecord
100
AcDbRegAppTableRecord
2
ACAD
70
0
0
ENDTAB
0
TABLE
2
DIMSTYLE
5
A
100
AcDbSymbolTable
70
1
0
ENDTAB
0
TABLE
2
BLOCK_RECORD
5
1
100
AcDbSymbolTable
70
1
0
BLOCK_RECORD
5
1F
100
AcDbSymbolTableRecord
100
AcDbBlockTableRecord
2
*MODEL_SPACE
0
BLOCK_RECORD
5
1B
100
AcDbSymbolTableRecord
100
AcDbBlockTableRecord
2
*PAPER_SPACE
0
ENDTAB
0
ENDSEC
0
SECTION
2
BLOCKS
0
BLOCK
5
20
100
AcDbEntity
100
AcDbBlockBegin
2
*MODEL_SPACE
0
ENDBLK
5
21
100
AcDbEntity
100
AcDbBlockEnd
0
BLOCK
5
1C
100
AcDbEntity
100
AcDbBlockBegin
2
*PAPER_SPACE
0
ENDBLK
5
1D
100
AcDbEntity
100
AcDbBlockEnd
0
ENDSEC
0
SECTION
2
ENTITIES
0
LINE
5
100
100
AcDbEntity
8
0
100
AcDbLine
10
39.999999999999993
20
60
30
0
11
40
21
70
31
0
0
LWPOLYLINE
5
101
100
AcDbEntity
8
0
100
AcDbPolyline
90
6
70
1
43
0.0
10
39.999999999999993
20
100
10
39.999999999999993
20
89.999999999999986
42
-0.4142135623730957
10
38
20
87.999999999999986
10
37.400000000000006
20
87.999999999999986
42
-0.4142135623730957
10
35.400000000000006
20
89.999999999999986
10
35.399999999999999
20
100
0
LINE
5
102
100
AcDbEntity
8
0
100
AcDbLine
10
43.700000000000003
20
58
30
0
11
43.700000000000003
21
58
31
0
0
LWPOLYLINE
5
103
100
AcDbEntity
8
0
100
AcDbPolyline
90
4
70
1
43
0.0
10
14.15
20
41.664999999999999
10
14.15
20
42.965000000000003
42
0.99999999999999989
10
12.949999999999999
20
42.965000000000003
10
12.949999999999999
20
41.664999999999999
42
0.99999999999999989
0
LWPOLYLINE
5
104
100
AcDbEntity
8
0
100
AcDbPolyline
90
4
70
1
43
0.0
10
22.450000000000003
20
62.034999999999997
10
22.450000000000003
20
63.335000000000001
42
0.99999999999999989
10
21.25
20
63.335000000000001
10
21.25
20
62.034999999999997
42
0.99999999999999989
0
LWPOLYLINE
5
105
100
AcDbEntity
8
0
100
AcDbPolyline
90
4
70
1
43
0.0
10
21.25
20
42.965000000000003
10
21.25
20
41.664999999999999
42
0.99999999999999989
10
22.450000000000003
20
41.664999999999999
10
22.450000000000003
20
42.965000000000003
42
0.99999999999999989
0
LWPOLYLINE
5
106
100
AcDbEntity
8
0
100
AcDbPolyline
90
4
70
1
43
0.0
10
72.950000000000003
20
63.335000000000001
42
-0.99999999999999989
10
74.150000000000006
20
63.335000000000001
10
74.150000000000006
20
62.034999999999997
42
-0.99999999999999989
10
72.950000000000003
20
62.034999999999997
0
LWPOLYLINE
5
107
100
AcDbEntity
8
0
100
AcDbPolyline
90
4
70
1
43
0.0
10
42.449999999999989
20
41.664999999999999
10
42.449999999999989
20
42.965000000000003
42
0.99999999999999989
10
41.249999999999993
20
42.965000000000003
10
41.249999999999993
20
41.664999999999999
42
0.99999999999999989
0
LINE
5
108
100
AcDbEntity
8
0
100
AcDbLine
10
23.700000000000003
20
58
30
0
11
23.700000000000003
21
58
31
0
0
LINE
5
109
100
AcDbEntity
8
0
100
AcDbLine
10
31.699999999999999
20
58
30
0
11
31.699999999999999
21
58
31
0
0
LWPOLYLINE
5
110
100
AcDbEntity
8
0
100
AcDbPolyline
90
4
70
1
43
0.0
10
2.4499999999999988
20
41.664999999999999
10
2.4500000000000011
20
42.965000000000003
42
0.99999999999999989
10
1.2499999999999978
20
42.965000000000003
10
1.2499999999999978
20
41.664999999999999
42
0.99999999999999989
0
LWPOLYLINE
5
111
100
AcDbEntity
8
0
100
AcDbPolyline
90
4
70
1
43
0.0
10
2.4500000000000006
20
62.034999999999997
42
-0.99999999999999989
10
1.25
20
62.034999999999997
10
1.2500000000000002
20
63.335000000000001
42
-0.99999999999999989
10
2.4500000000000002
20
63.335000000000001
0
ARC
5
112
100
AcDbEntity
8
0
100
AcDbCircle
10
13.700000000000008
20
58.000000000000007
30
0
40
2.0000000000000084
100
AcDbArc
50
180
51
269.99999999999972
0
LINE
5
113
100
AcDbEntity
8
0
100
AcDbLine
10
14.15
20
42.965000000000003
30
0
11
14.15
21
41.664999999999999
31
0
0
LWPOLYLINE
5
114
100
AcDbEntity
8
0
100
AcDbPolyline
90
6
70
1
43
0.0
10
3.7000000000000006
20
58
42
-0.41421356237309231
10
1.6999999999999997
20
56
10
0
20
56
10
0
20
60
10
1.6999999999999997
20
60
42
-0.41421356237309226
10
3.7000000000000002
20
58
0
LWPOLYLINE
5
115
100
AcDbEntity
8
0
100
AcDbPolyline
90
4
70
1
43
0.0
10
12.950000000000001
20
63.335000000000001
42
-0.99999999999999989
10
14.150000000000002
20
63.335000000000001
10
14.150000000000006
20
62.034999999999997
42
-0.99999999999999989
10
12.949999999999999
20
62.034999999999997
0
LINE
5
116
100
AcDbEntity
8
0
100
AcDbLine
10
13.699999999999999
20
60
30
0
11
15.4
21
60
31
0
0
ARC
5
117
100
AcDbEntity
8
0
100
AcDbCircle
10
13.550000000000002
20
63.335000000000001
30
0
40
0.60000000000000053
100
AcDbArc
50
0
51
180
0
CIRCLE
5
118
100
AcDbEntity
8
0
100
AcDbCircle
10
9.9499999999999993
20
42.314999999999998
30
0
40
0.59999999999999998
0
ARC
5
119
100
AcDbEntity
8
0
100
AcDbCircle
10
13.700000000000008
20
57.999999999999986
30
0
40
2.0000000000000107
100
AcDbArc
50
90.000000000000256
51
180
0
ARC
5
120
100
AcDbEntity
8
0
100
AcDbCircle
10
1.8499999999999983
20
42.965000000000003
30
0
40
0.60000000000000275
100
AcDbArc
50
0
51
180
0
CIRCLE
5
121
100
AcDbEntity
8
0
100
AcDbCircle
10
5.4499999999999993
20
42.314999999999998
30
0
40
0.59999999999999998
0
LINE
5
122
100
AcDbEntity
8
0
100
AcDbLine
10
12.949999999999999
20
41.664999999999999
30
0
11
12.949999999999999
21
42.965000000000003
31
0
0
ARC
5
123
100
AcDbEntity
8
0
100
AcDbCircle
10
13.550000000000001
20
41.664999999999999
30
0
40
0.60000000000000053
100
AcDbArc
50
-180
51
0
0
ARC
5
124
100
AcDbEntity
8
0
100
AcDbCircle
10
1.8499999999999983
20
41.664999999999999
30
0
40
0.60000000000000053
100
AcDbArc
50
-180
51
0
0
ARC
5
125
100
AcDbEntity
8
0
100
AcDbCircle
10
13.550000000000001
20
42.965000000000003
30
0
40
0.60000000000000053
100
AcDbArc
50
0
51
180
0
LINE
5
126
100
AcDbEntity
8
0
100
AcDbLine
10
1.2499999999999978
20
41.664999999999999
30
0
11
1.2499999999999978
21
42.965000000000003
31
0
0
LINE
5
127
100
AcDbEntity
8
0
100
AcDbLine
10
11.699999999999999
20
46.999999999999993
30
0
11
11.699999999999999
21
46.999999999999993
31
0
0
LINE
5
128
100
AcDbEntity
8
0
100
AcDbLine
10
15.4
20
34.999999999999993
30
0
11
15.4
21
45
31
0
0
LWPOLYLINE
5
129
100
AcDbEntity
8
0
100
AcDbPolyline
90
6
70
1
43
0.0
10
3.7000000000000002
20
47
10
3.6999999999999966
20
47
42
-0.4142135623730977
10
1.6999999999999948
20
45
10
0
20
45
10
0
20
49
10
1.7000000000000051
20
49
42
-0.41421356237309359
0
LINE
5
130
100
AcDbEntity
8
0
100
AcDbLine
10
2.4500000000000011
20
42.965000000000003
30
0
11
2.4499999999999988
21
41.664999999999999
31
0
0
LINE
5
131
100
AcDbEntity
8
0
100
AcDbLine
10
15.4
20
45
30
0
11
13.700000000000003
21
45
31
0
0
CIRCLE
5
132
100
AcDbEntity
8
0
100
AcDbCircle
10
9.9499999999999993
20
62.685000000000002
30
0
40
0.59999999999999998
0
ARC
5
133
100
AcDbEntity
8
0
100
AcDbCircle
10
1.8500000000000003
20
62.034999999999997
30
0
40
0.60000000000000031
100
AcDbArc
50
-180
51
0
0
CIRCLE
5
134
100
AcDbEntity
8
0
100
AcDbCircle
10
5.4500000000000002
20
62.685000000000002
30
0
40
0.59999999999999998
0
LWPOLYLINE
5
135
100
AcDbEntity
8
0
100
AcDbPolyline
90
6
70
1
43
0.0
10
20
20
100
10
20.000000000000004
20
89.999999999999986
42
-0.4142135623730967
10
18
20
87.999999999999986
10
17.399999999999999
20
87.999999999999986
42
-0.4142135623730967
10
15.399999999999995
20
89.999999999999986
10
15.4
20
100
0
ARC
5
136
100
AcDbEntity
8
0
100
AcDbCircle
10
1.8500000000000003
20
63.335000000000001
30
0
40
0.59999999999999998
100
AcDbArc
50
0
51
180
0
LINE
5
137
100
AcDbEntity
8
0
100
AcDbLine
10
17.399999999999999
20
72
30
0
11
18
21
72
31
0
0
ARC
5
138
100
AcDbEntity
8
0
100
AcDbCircle
10
17.999999999999996
20
69.999999999999986
30
0
40
2.0000000000000129
100
AcDbArc
50
0
51
89.999999999999901
0
ARC
5
139
100
AcDbEntity
8
0
100
AcDbCircle
10
17.400000000000006
20
69.999999999999986
30
0
40
2.0000000000000107
100
AcDbArc
50
90.000000000000199
51
180
0
LINE
5
140
100
AcDbEntity
8
0
100
AcDbLine
10
11.699999999999999
20
58
30
0
11
11.699999999999999
21
58
31
0
0
ARC
5
141
100
AcDbEntity
8
0
100
AcDbCircle
10
13.550000000000002
20
62.034999999999997
30
0
40
0.60000000000000275
100
AcDbArc
50
-180
51
0
0
ARC
5
142
100
AcDbEntity
8
0
100
AcDbCircle
10
61.699999999999982
20
58.000000000000007
30
0
40
2.0000000000000195
100
AcDbArc
50
270.00000000000063
51
360
0
ARC
5
143
100
AcDbEntity
8
0
100
AcDbCircle
10
61.699999999999982
20
57.999999999999986
30
0
40
2.0000000000000195
100
AcDbArc
50
0
51
89.999999999999389
0
ARC
5
144
100
AcDbEntity
8
0
100
AcDbCircle
10
53.700000000000017
20
58.000000000000014
30
0
40
2.0000000000000195
100
AcDbArc
50
180
51
269.9999999999996
0
ARC
5
145
100
AcDbEntity
8
0
100
AcDbCircle
10
53.700000000000017
20
57.999999999999979
30
0
40
2.0000000000000195
100
AcDbArc
50
90.000000000000398
51
180
0
LWPOLYLINE
5
146
100
AcDbEntity
8
0
100
AcDbPolyline
90
4
70
1
43
0.0
10
82.449999999999989
20
62.034999999999997
10
82.449999999999989
20
63.335000000000001
42
0.99999999999999989
10
81.25
20
63.335000000000001
10
81.25
20
62.034999999999997
42
0.99999999999999989
0
ARC
5
147
100
AcDbEntity
8
0
100
AcDbCircle
10
73.700000000000017
20
58.000000000000014
30
0
40
2.0000000000000195
100
AcDbArc
50
180
51
269.9999999999996
0
ARC
5
148
100
AcDbEntity
8
0
100
AcDbCircle
10
81.700000000000017
20
58.000000000000014
30
0
40
1.9999999999999751
100
AcDbArc
50
0
51
90.000000000000398
0
ARC
5
149
100
AcDbEntity
8
0
100
AcDbCircle
10
81.700000000000017
20
57.999999999999979
30
0
40
1.9999999999999751
100
AcDbArc
50
-90.000000000000398
51
0
0
LWPOLYLINE
5
150
100
AcDbEntity
8
0
100
AcDbPolyline
90
4
70
1
43
0.0
10
92.950000000000003
20
63.335000000000001
10
92.950000000000003
20
62.034999999999997
42
0.99999999999999989
10
94.150000000000006
20
62.034999999999997
10
94.150000000000006
20
63.335000000000001
42
0.99999999999999989
0
LINE
5
151
100
AcDbEntity
8
0
100
AcDbLine
10
92.950000000000003
20
62.034999999999997
30
0
11
92.950000000000003
21
63.335000000000001
31
0
0
LINE
5
152
100
AcDbEntity
8
0
100
AcDbLine
10
94.150000000000006
20
63.335000000000001
30
0
11
94.150000000000006
21
62.034999999999997
31
0
0
LWPOLYLINE
5
153
100
AcDbEntity
8
0
100
AcDbPolyline
90
6
70
1
43
0.0
10
95.399999999999991
20
60
10
93.699999999999974
20
59.999999999999993
42
0.4142135623731002
10
91.699999999999989
20
58
10
91.699999999999989
20
58
42
0.4142135623731002
10
93.699999999999974
20
56.000000000000007
10
95.399999999999991
20
56
0
CIRCLE
5
154
100
AcDbEntity
8
0
100
AcDbCircle
10
89.949999999999989
20
62.685000000000002
30
0
40
0.59999999999999998
0
ARC
5
155
100
AcDbEntity
8
0
100
AcDbCircle
10
93.550000000000011
20
63.335000000000001
30
0
40
0.60000000000000497
100
AcDbArc
50
0
51
180
0
ARC
5
156
100
AcDbEntity
8
0
100
AcDbCircle
10
93.550000000000011
20
62.034999999999997
30
0
40
0.60000000000000497
100
AcDbArc
50
-180
51
0
0
LWPOLYLINE
5
157
100
AcDbEntity
8
0
100
AcDbPolyline
90
6
70
1
43
0.0
10
57.399999999999991
20
87.999999999999986
10
58
20
87.999999999999986
42
0.4142135623731002
10
59.999999999999993
20
89.999999999999986
10
60
20
100
10
55.399999999999991
20
100
10
55.399999999999999
20
89.999999999999986
42
0.4142135623731002
0
LINE
5
158
100
AcDbEntity
8
0
100
AcDbLine
10
57.399999999999991
20
72
30
0
11
58
21
72
31
0
0
LWPOLYLINE
5
159
100
AcDbEntity
8
0
100
AcDbPolyline
90
6
70
1
43
0.0
10
77.399999999999991
20
87.999999999999986
10
78
20
87.999999999999986
42
0.4142135623731002
10
79.999999999999986
20
89.999999999999986
10
80
20
100
10
75.400000000000006
20
100
10
75.399999999999991
20
89.999999999999972
42
0.4142135623730937
0
LINE
5
160
100
AcDbEntity
8
0
100
AcDbLine
10
77.399999999999991
20
72
30
0
11
78
21
72
31
0
0
ARC
5
161
100
AcDbEntity
8
0
100
AcDbCircle
10
57.400000000000006
20
69.999999999999986
30
0
40
2.0000000000000195
100
AcDbArc
50
90.000000000000398
51
180
0
ARC
5
162
100
AcDbEntity
8
0
100
AcDbCircle
10
57.999999999999986
20
69.999999999999986
30
0
40
2.0000000000000195
100
AcDbArc
50
0
51
89.999999999999588
0
ARC
5
163
100
AcDbEntity
8
0
100
AcDbCircle
10
77.399999999999977
20
70.000000000000014
30
0
40
1.9999999999999929
100
AcDbArc
50
89.999999999999588
51
180
0
ARC
5
164
100
AcDbEntity
8
0
100
AcDbCircle
10
77.999999999999986
20
69.999999999999986
30
0
40
2.0000000000000107
100
AcDbArc
50
0
51
89.999999999999588
0
ARC
5
165
100
AcDbEntity
8
0
100
AcDbCircle
10
61.70000000000001
20
46.999999999999993
30
0
40
1.9999999999999929
100
AcDbArc
50
-90.000000000000611
51
0
0
ARC
5
166
100
AcDbEntity
8
0
100
AcDbCircle
10
61.699999999999989
20
46.999999999999986
30
0
40
2.0000000000000107
100
AcDbArc
50
0
51
89.999999999999588
0
ARC
5
167
100
AcDbEntity
8
0
100
AcDbCircle
10
53.700000000000003
20
47
30
0
40
2.0000000000000018
100
AcDbArc
50
180
51
270.00000000000023
0
ARC
5
168
100
AcDbEntity
8
0
100
AcDbCircle
10
53.70000000000001
20
46.999999999999972
30
0
40
2.0000000000000107
100
AcDbArc
50
90.000000000000199
51
180
0
LWPOLYLINE
5
169
100
AcDbEntity
8
0
100
AcDbPolyline
90
4
70
1
43
0.0
10
54.149999999999991
20
41.664999999999999
42
-0.99999999999999989
10
52.950000000000003
20
41.664999999999999
10
52.950000000000003
20
42.965000000000003
42
-0.99999999999999989
10
54.149999999999991
20
42.965000000000003
0
ARC
5
170
100
AcDbEntity
8
0
100
AcDbCircle
10
53.549999999999997
20
42.965000000000003
30
0
40
0.59999999999999609
100
AcDbArc
50
0
51
180
0
CIRCLE
5
171
100
AcDbEntity
8
0
100
AcDbCircle
10
49.949999999999989
20
42.314999999999998
30
0
40
0.59999999999999998
0
ARC
5
172
100
AcDbEntity
8
0
100
AcDbCircle
10
53.549999999999997
20
41.664999999999999
30
0
40
0.59999999999999609
100
AcDbArc
50
-180
51
0
0
LWPOLYLINE
5
173
100
AcDbEntity
8
0
100
AcDbPolyline
90
4
70
1
43
0.0
10
62.449999999999989
20
41.664999999999999
42
-0.99999999999999989
10
61.25
20
41.664999999999999
10
61.249999999999993
20
42.965000000000003
42
-0.99999999999999989
10
62.450000000000003
20
42.965000000000003
0
CIRCLE
5
174
100
AcDbEntity
8
0
100
AcDbCircle
10
65.450000000000003
20
42.314999999999998
30
0
40
0.59999999999999998
0
ARC
5
175
100
AcDbEntity
8
0
100
AcDbCircle
10
61.849999999999994
20
42.965000000000003
30
0
40
0.60000000000000497
100
AcDbArc
50
0
51
180
0
ARC
5
176
100
AcDbEntity
8
0
100
AcDbCircle
10
61.849999999999994
20
41.664999999999999
30
0
40
0.59999999999999609
100
AcDbArc
50
-180
51
0
0
LINE
5
177
100
AcDbEntity
8
0
100
AcDbLine
10
63.700000000000003
20
46.999999999999993
30
0
11
63.700000000000003
21
46.999999999999993
31
0
0
LINE
5
178
100
AcDbEntity
8
0
100
AcDbLine
10
51.700000000000003
20
46.999999999999993
30
0
11
51.700000000000003
21
46.999999999999993
31
0
0
LINE
5
179
100
AcDbEntity
8
0
100
AcDbLine
10
60
20
45
30
0
11
60
21
34.999999999999993
31
0
0
LINE
5
180
100
AcDbEntity
8
0
100
AcDbLine
10
55.399999999999991
20
34.999999999999993
30
0
11
55.399999999999991
21
45
31
0
0
LINE
5
181
100
AcDbEntity
8
0
100
AcDbLine
10
55.399999999999991
20
45
30
0
11
53.70000000000001
21
45
31
0
0
LINE
5
182
100
AcDbEntity
8
0
100
AcDbLine
10
61.699999999999989
20
45
30
0
11
60
21
45
31
0
0
LINE
5
183
100
AcDbEntity
8
0
100
AcDbLine
10
53.700000000000003
20
48.999999999999986
30
0
11
61.700000000000003
21
48.999999999999993
31
0
0
LINE
5
184
100
AcDbEntity
8
0
100
AcDbLine
10
52.950000000000003
20
41.664999999999999
30
0
11
52.950000000000003
21
42.965000000000003
31
0
0
LINE
5
185
100
AcDbEntity
8
0
100
AcDbLine
10
61.25
20
41.664999999999999
30
0
11
61.25
21
42.965000000000003
31
0
0
LINE
5
186
100
AcDbEntity
8
0
100
AcDbLine
10
54.149999999999991
20
42.965000000000003
30
0
11
54.149999999999991
21
41.664999999999999
31
0
0
LINE
5
187
100
AcDbEntity
8
0
100
AcDbLine
10
62.450000000000003
20
42.965000000000003
30
0
11
62.450000000000003
21
41.664999999999999
31
0
0
LWPOLYLINE
5
188
100
AcDbEntity
8
0
100
AcDbPolyline
90
4
70
1
43
0.0
10
72.950000000000003
20
42.965000000000003
10
72.950000000000003
20
41.664999999999999
42
0.99999999999999989
10
74.150000000000006
20
41.664999999999999
10
74.150000000000006
20
42.965000000000003
42
0.99999999999999989
0
LINE
5
189
100
AcDbEntity
8
0
100
AcDbLine
10
74.150000000000006
20
42.965000000000003
30
0
11
74.150000000000006
21
41.664999999999999
31
0
0
LINE
5
190
100
AcDbEntity
8
0
100
AcDbLine
10
72.950000000000003
20
41.664999999999999
30
0
11
72.950000000000003
21
42.965000000000003
31
0
0
LWPOLYLINE
5
191
100
AcDbEntity
8
0
100
AcDbPolyline
90
14
70
1
43
0.0
10
73.700000000000017
20
45
10
75.400000000000006
20
45
10
75.399999999999991
20
34.999999999999993
42
0.4142135623730957
10
77.399999999999991
20
32.999999999999986
10
78
20
32.999999999999986
42
0.41421356237309176
10
80
20
34.999999999999993
10
80
20
45
10
81.700000000000003
20
45.000000000000007
42
0.41421356237309892
10
83.699999999999989
20
46.999999999999993
10
83.699999999999989
20
46.999999999999993
42
0.4142135623730937
10
81.700000000000017
20
48.999999999999993
10
73.700000000000003
20
48.999999999999986
42
0.41421356237309109
10
71.700000000000003
20
46.999999999999993
10
71.700000000000003
20
46.999999999999993
42
0.41421356237309509
0
CIRCLE
5
192
100
AcDbEntity
8
0
100
AcDbCircle
10
69.950000000000003
20
42.314999999999998
30
0
40
0.59999999999999998
0
ARC
5
193
100
AcDbEntity
8
0
100
AcDbCircle
10
73.550000000000011
20
42.965000000000003
30
0
40
0.59999999999999609
100
AcDbArc
50
0
51
180
0
ARC
5
194
100
AcDbEntity
8
0
100
AcDbCircle
10
73.550000000000011
20
41.664999999999999
30
0
40
0.60000000000000497
100
AcDbArc
50
-180
51
0
0
LWPOLYLINE
5
195
100
AcDbEntity
8
0
100
AcDbPolyline
90
4
70
1
43
0.0
10
81.25
20
42.965000000000003
10
81.25
20
41.664999999999999
42
0.99999999999999989
10
82.449999999999989
20
41.664999999999999
10
82.450000000000017
20
42.965000000000003
42
0.99999999999999989
0
LWPOLYLINE
5
196
100
AcDbEntity
8
0
100
AcDbPolyline
90
4
70
1
43
0.0
10
92.950000000000003
20
42.965000000000003
10
92.950000000000003
20
41.664999999999999
42
0.99999999999999989
10
94.149999999999991
20
41.664999999999999
10
94.149999999999991
20
42.965000000000003
42
0.99999999999999989
0
LINE
5
197
100
AcDbEntity
8
0
100
AcDbLine
10
92.950000000000003
20
41.664999999999999
30
0
11
92.950000000000003
21
42.965000000000003
31
0
0
LINE
5
198
100
AcDbEntity
8
0
100
AcDbLine
10
82.450000000000017
20
42.965000000000003
30
0
11
82.449999999999989
21
41.664999999999999
31
0
0
LINE
5
199
100
AcDbEntity
8
0
100
AcDbLine
10
94.149999999999991
20
42.965000000000003
30
0
11
94.149999999999991
21
41.664999999999999
31
0
0
LINE
5
200
100
AcDbEntity
8
0
100
AcDbLine
10
81.25
20
41.664999999999999
30
0
11
81.25
21
42.965000000000003
31
0
0
LWPOLYLINE
5
201
100
AcDbEntity
8
0
100
AcDbPolyline
90
6
70
1
43
0.0
10
95.399999999999991
20
49
10
93.699999999999974
20
49.000000000000014
42
0.41421356237309243
10
91.699999999999989
20
47
10
91.699999999999989
20
47
42
0.4142135623731002
10
93.699999999999974
20
45.000000000000007
10
95.399999999999991
20
45
0
ARC
5
202
100
AcDbEntity
8
0
100
AcDbCircle
10
81.850000000000009
20
41.664999999999999
30
0
40
0.60000000000000497
100
AcDbArc
50
-180
51
0
0
CIRCLE
5
203
100
AcDbEntity
8
0
100
AcDbCircle
10
89.949999999999989
20
42.314999999999998
30
0
40
0.59999999999999998
0
ARC
5
204
100
AcDbEntity
8
0
100
AcDbCircle
10
93.550000000000011
20
41.664999999999999
30
0
40
0.60000000000000497
100
AcDbArc
50
-180
51
0
0
ARC
5
205
100
AcDbEntity
8
0
100
AcDbCircle
10
81.850000000000009
20
42.965000000000003
30
0
40
0.60000000000000497
100
AcDbArc
50
0
51
180
0
ARC
5
206
100
AcDbEntity
8
0
100
AcDbCircle
10
93.550000000000011
20
42.965000000000003
30
0
40
0.59999999999998721
100
AcDbArc
50
0
51
180
0
CIRCLE
5
207
100
AcDbEntity
8
0
100
AcDbCircle
10
85.450000000000003
20
42.314999999999998
30
0
40
0.59999999999999998
0
LINE
5
208
100
AcDbEntity
8
0
100
AcDbLine
10
58
20
32.999999999999986
30
0
11
57.399999999999991
21
32.999999999999986
31
0
0
LWPOLYLINE
5
209
100
AcDbEntity
8
0
100
AcDbPolyline
90
6
70
1
43
0.0
10
78
20
17
10
77.399999999999991
20
17
42
0.41421356237309598
10
75.400000000000006
20
15.000000000000004
10
75.399999999999991
20
5
10
79.999999999999986
20
5
10
80
20
15
42
0.41421356237309243
0
LWPOLYLINE
5
210
100
AcDbEntity
8
0
100
AcDbPolyline
90
6
70
1
43
0.0
10
58
20
17
10
57.399999999999991
20
17
42
0.41421356237309243
10
55.399999999999991
20
15.000000000000002
10
55.399999999999991
20
5
10
59.999999999999993
20
5
10
60
20
15
42
0.41421356237309243
0
LINE
5
211
100
AcDbEntity
8
0
100
AcDbLine
10
14.150000000000002
20
63.335000000000001
30
0
11
14.150000000000002
21
62.034999999999997
31
0
0
LWPOLYLINE
5
212
100
AcDbEntity
8
0
100
AcDbPolyline
90
4
70
1
43
0.0
10
32.950000000000003
20
42.965000000000003
42
-0.99999999999999989
10
34.149999999999999
20
42.965000000000003
10
34.149999999999999
20
41.664999999999999
42
-0.99999999999999989
10
32.950000000000003
20
41.664999999999999
0
LINE
5
213
100
AcDbEntity
8
0
100
AcDbLine
10
18
20
32.999999999999986
30
0
11
17.399999999999999
21
32.999999999999986
31
0
0
ARC
5
214
100
AcDbEntity
8
0
100
AcDbCircle
10
21.699999999999989
20
46.999999999999986
30
0
40
2.0000000000000107
100
AcDbArc
50
0
51
89.999999999999702
0
ARC
5
215
100
AcDbEntity
8
0
100
AcDbCircle
10
21.700000000000003
20
46.999999999999993
30
0
40
1.9999999999999929
100
AcDbArc
50
-90.000000000000199
51
0
0
ARC
5
216
100
AcDbEntity
8
0
100
AcDbCircle
10
33.70000000000001
20
46.999999999999986
30
0
40
2.0000000000000107
100
AcDbArc
50
90.000000000000199
51
180
0
ARC
5
217
100
AcDbEntity
8
0
100
AcDbCircle
10
33.699999999999996
20
46.999999999999993
30
0
40
1.9999999999999973
100
AcDbArc
50
180
51
270.00000000000023
0
LINE
5
218
100
AcDbEntity
8
0
100
AcDbLine
10
2.4500000000000002
20
63.335000000000001
30
0
11
2.4500000000000002
21
62.034999999999997
31
0
0
ARC
5
219
100
AcDbEntity
8
0
100
AcDbCircle
10
13.699999999999996
20
46.999999999999993
30
0
40
1.9999999999999973
100
AcDbArc
50
180
51
270.00000000000023
0
LINE
5
220
100
AcDbEntity
8
0
100
AcDbLine
10
1.25
20
62.034999999999997
30
0
11
1.25
21
63.335000000000001
31
0
0
ARC
5
221
100
AcDbEntity
8
0
100
AcDbCircle
10
13.700000000000003
20
46.999999999999986
30
0
40
2.0000000000000018
100
AcDbArc
50
90.000000000000099
51
180
0
LINE
5
222
100
AcDbEntity
8
0
100
AcDbLine
10
12.949999999999999
20
62.034999999999997
30
0
11
12.950000000000001
21
63.335000000000001
31
0
0
ARC
5
223
100
AcDbEntity
8
0
100
AcDbCircle
10
73.550000000000011
20
62.034999999999997
30
0
40
0.60000000000000497
100
AcDbArc
50
-180
51
0
0
ARC
5
224
100
AcDbEntity
8
0
100
AcDbCircle
10
81.850000000000009
20
63.335000000000001
30
0
40
0.59999999999998721
100
AcDbArc
50
0
51
180
0
ARC
5
225
100
AcDbEntity
8
0
100
AcDbCircle
10
73.700000000000017
20
57.999999999999979
30
0
40
2.0000000000000195
100
AcDbArc
50
90.000000000000398
51
180
0
ARC
5
226
100
AcDbEntity
8
0
100
AcDbCircle
10
73.550000000000011
20
63.335000000000001
30
0
40
0.59999999999999609
100
AcDbArc
50
0
51
180
0
CIRCLE
5
227
100
AcDbEntity
8
0
100
AcDbCircle
10
69.950000000000003
20
62.685000000000002
30
0
40
0.59999999999999998
0
ARC
5
228
100
AcDbEntity
8
0
100
AcDbCircle
10
41.699999999999989
20
46.999999999999986
30
0
40
2.0000000000000107
100
AcDbArc
50
0
51
89.999999999999588
0
ARC
5
229
100
AcDbEntity
8
0
100
AcDbCircle
10
41.70000000000001
20
46.999999999999993
30
0
40
1.9999999999999929
100
AcDbArc
50
-90.000000000000611
51
0
0
ARC
5
230
100
AcDbEntity
8
0
100
AcDbCircle
10
33.700000000000017
20
57.999999999999986
30
0
40
2.0000000000000107
100
AcDbArc
50
90.000000000000398
51
180
0
ARC
5
231
100
AcDbEntity
8
0
100
AcDbCircle
10
33.700000000000017
20
58.000000000000007
30
0
40
2.0000000000000151
100
AcDbArc
50
180
51
269.9999999999996
0
LWPOLYLINE
5
232
100
AcDbEntity
8
0
100
AcDbPolyline
90
4
70
1
43
0.0
10
32.950000000000003
20
63.335000000000001
10
32.950000000000003
20
62.034999999999997
42
0.99999999999999989
10
34.149999999999999
20
62.034999999999997
10
34.149999999999999
20
63.335000000000001
42
0.99999999999999989
0
ARC
5
233
100
AcDbEntity
8
0
100
AcDbCircle
10
41.849999999999994
20
41.664999999999999
30
0
40
0.60000000000000497
100
AcDbArc
50
-180
51
0
0
ARC
5
234
100
AcDbEntity
8
0
100
AcDbCircle
10
21.699999999999985
20
57.999999999999986
30
0
40
2.0000000000000151
100
AcDbArc
50
0
51
89.999999999999588
0
ARC
5
235
100
AcDbEntity
8
0
100
AcDbCircle
10
21.699999999999985
20
58.000000000000007
30
0
40
2.0000000000000107
100
AcDbArc
50
270.0000000000004
51
360
0
LINE
5
236
100
AcDbEntity
8
0
100
AcDbLine
10
34.149999999999999
20
42.965000000000003
30
0
11
34.149999999999999
21
41.664999999999999
31
0
0
LINE
5
237
100
AcDbEntity
8
0
100
AcDbLine
10
32.950000000000003
20
41.664999999999999
30
0
11
32.950000000000003
21
42.965000000000003
31
0
0
LINE
5
238
100
AcDbEntity
8
0
100
AcDbLine
10
60
20
60
30
0
11
61.700000000000003
21
60.000000000000007
31
0
0
LWPOLYLINE
5
239
100
AcDbEntity
8
0
100
AcDbPolyline
90
4
70
1
43
0.0
10
42.449999999999989
20
62.034999999999997
10
42.449999999999989
20
63.335000000000001
42
0.99999999999999989
10
41.25
20
63.335000000000001
10
41.25
20
62.034999999999997
42
0.99999999999999989
0
LINE
5
240
100
AcDbEntity
8
0
100
AcDbLine
10
72.950000000000003
20
62.034999999999997
30
0
11
72.950000000000003
21
63.335000000000001
31
0
0
LINE
5
241
100
AcDbEntity
8
0
100
AcDbLine
10
74.150000000000006
20
63.335000000000001
30
0
11
74.150000000000006
21
62.034999999999997
31
0
0
LINE
5
242
100
AcDbEntity
8
0
100
AcDbLine
10
82.449999999999989
20
63.335000000000001
30
0
11
82.449999999999989
21
62.034999999999997
31
0
0
CIRCLE
5
243
100
AcDbEntity
8
0
100
AcDbCircle
10
25.449999999999999
20
62.685000000000002
30
0
40
0.59999999999999998
0
LINE
5
244
100
AcDbEntity
8
0
100
AcDbLine
10
38
20
32.999999999999986
30
0
11
37.400000000000006
21
32.999999999999986
31
0
0
ARC
5
245
100
AcDbEntity
8
0
100
AcDbCircle
10
37.999999999999993
20
34.999999999999993
30
0
40
2.0000000000000062
100
AcDbArc
50
-89.999999999999801
51
0
0
LWPOLYLINE
5
246
100
AcDbEntity
8
0
100
AcDbPolyline
90
6
70
1
43
0.0
10
38
20
17
10
37.400000000000006
20
17
42
0.4142135623730947
10
35.399999999999999
20
15.000000000000002
10
35.399999999999999
20
5
10
39.999999999999993
20
5
10
40
20
15
42
0.41421356237309509
0
ARC
5
247
100
AcDbEntity
8
0
100
AcDbCircle
10
33.550000000000004
20
62.034999999999997
30
0
40
0.60000000000000497
100
AcDbArc
50
-180
51
0
0
LINE
5
248
100
AcDbEntity
8
0
100
AcDbLine
10
39.999999999999993
20
45
30
0
11
40
21
34.999999999999993
31
0
0
LINE
5
249
100
AcDbEntity
8
0
100
AcDbLine
10
51.700000000000003
20
58
30
0
11
51.700000000000003
21
58
31
0
0
LINE
5
250
100
AcDbEntity
8
0
100
AcDbLine
10
55.399999999999984
20
70
30
0
11
55.399999999999991
21
60
31
0
0
LINE
5
251
100
AcDbEntity
8
0
100
AcDbLine
10
60
20
60
30
0
11
60.000000000000007
21
70
31
0
0
LINE
5
252
100
AcDbEntity
8
0
100
AcDbLine
10
61.700000000000003
20
55.999999999999986
30
0
11
53.700000000000003
21
56
31
0
0
LWPOLYLINE
5
253
100
AcDbEntity
8
0
100
AcDbPolyline
90
4
70
1
43
0.0
10
62.450000000000003
20
62.034999999999997
10
62.450000000000003
20
63.335000000000001
42
0.99999999999999989
10
61.25
20
63.335000000000001
10
61.25
20
62.034999999999997
42
0.99999999999999989
0
LINE
5
254
100
AcDbEntity
8
0
100
AcDbLine
10
37.400000000000006
20
72
30
0
11
38
21
72
31
0
0
LWPOLYLINE
5
255
100
AcDbEntity
8
0
100
AcDbPolyline
90
4
70
1
43
0.0
10
54.149999999999999
20
62.034999999999997
10
54.149999999999999
20
63.335000000000001
42
0.99999999999999989
10
52.950000000000003
20
63.335000000000001
10
52.950000000000003
20
62.034999999999997
42
0.99999999999999989
0
LINE
5
256
100
AcDbEntity
8
0
100
AcDbLine
10
52.950000000000003
20
62.034999999999997
30
0
11
52.950000000000003
21
63.335000000000001
31
0
0
LINE
5
257
100
AcDbEntity
8
0
100
AcDbLine
10
54.149999999999999
20
63.335000000000001
30
0
11
54.149999999999999
21
62.034999999999997
31
0
0
LINE
5
258
100
AcDbEntity
8
0
100
AcDbLine
10
62.450000000000003
20
63.335000000000001
30
0
11
62.450000000000003
21
62.034999999999997
31
0
0
LINE
5
259
100
AcDbEntity
8
0
100
AcDbLine
10
61.25
20
62.034999999999997
30
0
11
61.25
21
63.335000000000001
31
0
0
CIRCLE
5
260
100
AcDbEntity
8
0
100
AcDbCircle
10
49.949999999999989
20
62.685000000000002
30
0
40
0.59999999999999998
0
ARC
5
261
100
AcDbEntity
8
0
100
AcDbCircle
10
53.549999999999997
20
62.034999999999997
30
0
40
0.59999999999999609
100
AcDbArc
50
-180
51
0
0
CIRCLE
5
262
100
AcDbEntity
8
0
100
AcDbCircle
10
65.450000000000003
20
62.685000000000002
30
0
40
0.59999999999999998
0
ARC
5
263
100
AcDbEntity
8
0
100
AcDbCircle
10
61.849999999999994
20
62.034999999999997
30
0
40
0.59999999999999609
100
AcDbArc
50
-180
51
0
0
LINE
5
264
100
AcDbEntity
8
0
100
AcDbLine
10
63.700000000000003
20
58
30
0
11
63.700000000000003
21
58
31
0
0
LINE
5
265
100
AcDbEntity
8
0
100
AcDbLine
10
22.450000000000003
20
63.335000000000001
30
0
11
22.450000000000003
21
62.034999999999997
31
0
0
LINE
5
266
100
AcDbEntity
8
0
100
AcDbLine
10
43.700000000000003
20
46.999999999999993
30
0
11
43.700000000000003
21
46.999999999999993
31
0
0
CIRCLE
5
267
100
AcDbEntity
8
0
100
AcDbCircle
10
29.950000000000003
20
62.685000000000002
30
0
40
0.59999999999999998
0
CIRCLE
5
268
100
AcDbEntity
8
0
100
AcDbCircle
10
45.450000000000003
20
42.314999999999998
30
0
40
0.59999999999999998
0
LINE
5
269
100
AcDbEntity
8
0
100
AcDbLine
10
42.449999999999989
20
63.335000000000001
30
0
11
42.449999999999989
21
62.034999999999997
31
0
0
LINE
5
270
100
AcDbEntity
8
0
100
AcDbLine
10
41.25
20
62.034999999999997
30
0
11
41.25
21
63.335000000000001
31
0
0
LINE
5
271
100
AcDbEntity
8
0
100
AcDbLine
10
39.999999999999993
20
60
30
0
11
41.700000000000003
21
60.000000000000007
31
0
0
LINE
5
272
100
AcDbEntity
8
0
100
AcDbLine
10
41.700000000000003
20
55.999999999999986
30
0
11
33.700000000000003
21
56
31
0
0
LINE
5
273
100
AcDbEntity
8
0
100
AcDbLine
10
42.449999999999989
20
42.965000000000003
30
0
11
42.449999999999989
21
41.664999999999999
31
0
0
LINE
5
274
100
AcDbEntity
8
0
100
AcDbLine
10
20
20
60
30
0
11
20.000000000000007
21
70
31
0
0
ARC
5
275
100
AcDbEntity
8
0
100
AcDbCircle
10
21.850000000000001
20
63.335000000000001
30
0
40
0.60000000000000053
100
AcDbArc
50
0
51
180
0
LINE
5
276
100
AcDbEntity
8
0
100
AcDbLine
10
81.700000000000003
20
56.000000000000007
30
0
11
73.700000000000003
21
56
31
0
0
LINE
5
277
100
AcDbEntity
8
0
100
AcDbLine
10
80
20
60
30
0
11
80
21
70
31
0
0
LINE
5
278
100
AcDbEntity
8
0
100
AcDbLine
10
75.399999999999991
20
70
30
0
11
75.400000000000006
21
60
31
0
0
LINE
5
279
100
AcDbEntity
8
0
100
AcDbLine
10
71.700000000000003
20
58
30
0
11
71.700000000000003
21
58
31
0
0
LINE
5
280
100
AcDbEntity
8
0
100
AcDbLine
10
83.699999999999989
20
58
30
0
11
83.699999999999989
21
58
31
0
0
ARC
5
281
100
AcDbEntity
8
0
100
AcDbCircle
10
81.850000000000009
20
62.034999999999997
30
0
40
0.60000000000000497
100
AcDbArc
50
-180
51
0
0
CIRCLE
5
282
100
AcDbEntity
8
0
100
AcDbCircle
10
25.449999999999999
20
42.314999999999998
30
0
40
0.59999999999999998
0
CIRCLE
5
283
100
AcDbEntity
8
0
100
AcDbCircle
10
29.950000000000003
20
42.314999999999998
30
0
40
0.59999999999999998
0
ARC
5
284
100
AcDbEntity
8
0
100
AcDbCircle
10
21.849999999999994
20
42.965000000000003
30
0
40
0.60000000000000497
100
AcDbArc
50
0
51
180
0
LWPOLYLINE
5
285
100
AcDbEntity
8
0
100
AcDbPolyline
90
6
70
1
43
0.0
10
19.999999999999993
20
5
10
19.999999999999996
20
15
42
0.41421356237309598
10
18
20
17
10
17.399999999999999
20
17
42
0.41421356237309509
10
15.4
20
15.000000000000002
10
15.399999999999995
20
5
0
ARC
5
286
100
AcDbEntity
8
0
100
AcDbCircle
10
21.849999999999994
20
41.664999999999999
30
0
40
0.59999999999999609
100
AcDbArc
50
-180
51
0
0
ARC
5
287
100
AcDbEntity
8
0
100
AcDbCircle
10
33.549999999999997
20
41.664999999999999
30
0
40
0.60000000000000053
100
AcDbArc
50
-180
51
0
0
LINE
5
288
100
AcDbEntity
8
0
100
AcDbLine
10
22.450000000000003
20
42.965000000000003
30
0
11
22.450000000000003
21
41.664999999999999
31
0
0
LINE
5
289
100
AcDbEntity
8
0
100
AcDbLine
10
21.25
20
41.664999999999999
30
0
11
21.25
21
42.965000000000003
31
0
0
LINE
5
290
100
AcDbEntity
8
0
100
AcDbLine
10
13.699999999999999
20
48.999999999999986
30
0
11
21.699999999999999
21
48.999999999999993
31
0
0
LINE
5
291
100
AcDbEntity
8
0
100
AcDbLine
10
35.399999999999999
20
45
30
0
11
33.700000000000003
21
45
31
0
0
LINE
5
292
100
AcDbEntity
8
0
100
AcDbLine
10
21.699999999999996
20
45
30
0
11
20
21
45
31
0
0
LINE
5
293
100
AcDbEntity
8
0
100
AcDbLine
10
20
20
45
30
0
11
20
21
34.999999999999993
31
0
0
ARC
5
294
100
AcDbEntity
8
0
100
AcDbCircle
10
18
20
34.999999999999993
30
0
40
2.0000000000000018
100
AcDbArc
50
-90
51
0
0
LINE
5
295
100
AcDbEntity
8
0
100
AcDbLine
10
35.399999999999999
20
34.999999999999993
30
0
11
35.399999999999999
21
45
31
0
0
LINE
5
296
100
AcDbEntity
8
0
100
AcDbLine
10
23.700000000000003
20
46.999999999999993
30
0
11
23.700000000000003
21
46.999999999999993
31
0
0
ARC
5
297
100
AcDbEntity
8
0
100
AcDbCircle
10
41.849999999999994
20
42.965000000000003
30
0
40
0.59999999999999609
100
AcDbArc
50
0
51
180
0
ARC
5
298
100
AcDbEntity
8
0
100
AcDbCircle
10
21.850000000000001
20
62.034999999999997
30
0
40
0.60000000000000053
100
AcDbArc
50
-180
51
0
0
ARC
5
299
100
AcDbEntity
8
0
100
AcDbCircle
10
37.400000000000006
20
34.999999999999993
30
0
40
2.0000000000000062
100
AcDbArc
50
180
51
270
0
LINE
5
300
100
AcDbEntity
8
0
100
AcDbLine
10
31.699999999999999
20
46.999999999999993
30
0
11
31.699999999999999
21
46.999999999999993
31
0
0
ARC
5
301
100
AcDbEntity
8
0
100
AcDbCircle
10
33.549999999999997
20
42.965000000000003
30
0
40
0.60000000000000053
100
AcDbArc
50
0
51
180
0
ARC
5
302
100
AcDbEntity
8
0
100
AcDbCircle
10
17.400000000000002
20
34.999999999999993
30
0
40
2.0000000000000018
100
AcDbArc
50
180
51
269.99999999999989
0
LINE
5
303
100
AcDbEntity
8
0
100
AcDbLine
10
73.700000000000003
20
60
30
0
11
75.400000000000006
21
60
31
0
0
LINE
5
304
100
AcDbEntity
8
0
100
AcDbLine
10
15.399999999999993
20
70
30
0
11
15.4
21
60
31
0
0
ARC
5
305
100
AcDbEntity
8
0
100
AcDbCircle
10
37.400000000000013
20
69.999999999999986
30
0
40
2.0000000000000107
100
AcDbArc
50
90.000000000000199
51
180
0
LINE
5
306
100
AcDbEntity
8
0
100
AcDbLine
10
32.950000000000003
20
62.034999999999997
30
0
11
32.950000000000003
21
63.335000000000001
31
0
0
CIRCLE
5
307
100
AcDbEntity
8
0
100
AcDbCircle
10
45.450000000000003
20
62.685000000000002
30
0
40
0.59999999999999998
0
ARC
5
308
100
AcDbEntity
8
0
100
AcDbCircle
10
41.849999999999994
20
63.335000000000001
30
0
40
0.59999999999999609
100
AcDbArc
50
0
51
180
0
ARC
5
309
100
AcDbEntity
8
0
100
AcDbCircle
10
41.849999999999994
20
62.034999999999997
30
0
40
0.59999999999999609
100
AcDbArc
50
-180
51
0
0
LINE
5
310
100
AcDbEntity
8
0
100
AcDbLine
10
21.25
20
62.034999999999997
30
0
11
21.25
21
63.335000000000001
31
0
0
LINE
5
311
100
AcDbEntity
8
0
100
AcDbLine
10
20
20
60
30
0
11
21.699999999999999
21
60
31
0
0
LINE
5
312
100
AcDbEntity
8
0
100
AcDbLine
10
33.700000000000003
20
60
30
0
11
35.399999999999999
21
60
31
0
0
LINE
5
313
100
AcDbEntity
8
0
100
AcDbLine
10
21.699999999999999
20
56
30
0
11
13.699999999999999
21
56
31
0
0
LINE
5
314
100
AcDbEntity
8
0
100
AcDbLine
10
41.249999999999993
20
41.664999999999999
30
0
11
41.249999999999993
21
42.965000000000003
31
0
0
LINE
5
315
100
AcDbEntity
8
0
100
AcDbLine
10
35.399999999999999
20
70
30
0
11
35.399999999999999
21
60
31
0
0
ARC
5
316
100
AcDbEntity
8
0
100
AcDbCircle
10
37.999999999999986
20
69.999999999999986
30
0
40
2.0000000000000107
100
AcDbArc
50
0
51
89.999999999999588
0
ARC
5
317
100
AcDbEntity
8
0
100
AcDbCircle
10
41.699999999999982
20
57.999999999999986
30
0
40
2.0000000000000195
100
AcDbArc
50
0
51
89.999999999999389
0
ARC
5
318
100
AcDbEntity
8
0
100
AcDbCircle
10
41.699999999999982
20
58.000000000000007
30
0
40
2.0000000000000195
100
AcDbArc
50
270.00000000000063
51
360
0
LINE
5
319
100
AcDbEntity
8
0
100
AcDbLine
10
34.149999999999999
20
63.335000000000001
30
0
11
34.149999999999999
21
62.034999999999997
31
0
0
LINE
5
320
100
AcDbEntity
8
0
100
AcDbLine
10
80
20
60
30
0
11
81.700000000000003
21
59.999999999999993
31
0
0
LINE
5
321
100
AcDbEntity
8
0
100
AcDbLine
10
53.700000000000003
20
60
30
0
11
55.399999999999991
21
60
31
0
0
CIRCLE
5
322
100
AcDbEntity
8
0
100
AcDbCircle
10
85.450000000000003
20
62.685000000000002
30
0
40
0.59999999999999998
0
ARC
5
323
100
AcDbEntity
8
0
100
AcDbCircle
10
57.999999999999986
20
35.000000000000007
30
0
40
2.0000000000000151
100
AcDbArc
50
270.0000000000004
51
360
0
ARC
5
324
100
AcDbEntity
8
0
100
AcDbCircle
10
57.400000000000006
20
35.000000000000007
30
0
40
2.0000000000000107
100
AcDbArc
50
180
51
269.9999999999996
0
LINE
5
325
100
AcDbEntity
8
0
100
AcDbLine
10
33.700000000000003
20
48.999999999999993
30
0
11
41.700000000000003
21
48.999999999999993
31
0
0
ARC
5
326
100
AcDbEntity
8
0
100
AcDbCircle
10
33.550000000000004
20
63.335000000000001
30
0
40
0.59999999999999609
100
AcDbArc
50
0
51
180
0
LINE
5
327
100
AcDbEntity
8
0
100
AcDbLine
10
41.699999999999989
20
45
30
0
11
39.999999999999993
21
45
31
0
0
ARC
5
328
100
AcDbEntity
8
0
100
AcDbCircle
10
61.849999999999994
20
63.335000000000001
30
0
40
0.60000000000000497
100
AcDbArc
50
0
51
180
0
ARC
5
329
100
AcDbEntity
8
0
100
AcDbCircle
10
53.549999999999997
20
63.335000000000001
30
0
40
0.60000000000000497
100
AcDbArc
50
0
51
180
0
LINE
5
330
100
AcDbEntity
8
0
100
AcDbLine
10
81.25
20
62.034999999999997
30
0
11
81.25
21
63.335000000000001
31
0
0
ENDSEC
0
SECTION
2
OBJECTS
0
DICTIONARY
5
C
100
AcDbDictionary
3
ACAD_GROUP
350
D
3
ACAD_MLINESTYLE
350
17
0
DICTIONARY
5
D
100
AcDbDictionary
0
DICTIONARY
5
1A
330
C
100
AcDbDictionary
0
DICTIONARY
5
17
100
AcDbDictionary
0
ENDSEC
0
EOF
