0
SECTION
2
HEADER
9
$INSUNITS
70
4
9
$ACADVER
1
AC1014
9
$HANDSEED
5
FFFF
0
ENDSEC
0
SECTION
2
TABLES
0
TABLE
2
VPORT
5
8
100
AcDbSymbolTable
0
ENDTAB
0
TABLE
2
LTYPE
5
5
100
AcDbSymbolTable
0
LTYPE
5
14
100
AcDbSymbolTableRecord
100
AcDbLinetypeTableRecord
2
BYBLOCK
70
0
0
LTYPE
5
15
100
AcDbSymbolTableRecord
100
AcDbLinetypeTableRecord
2
BYLAYER
70
0
0
ENDTAB
0
TABLE
2
LAYER
5
2
100
AcDbSymbolTable
70
2
0
LAYER
5
50
100
AcDbSymbolTableRecord
100
AcDbLayerTableRecord
2
0
70
0
6
CONTINUOUS
0
ENDTAB
0
TABLE
2
STYLE
5
3
100
AcDbSymbolTable
70
1
0
STYLE
5
11
100
AcDbSymbolTableRecord
100
AcDbTextStyleTableRecord
2
STANDARD
70
0
0
ENDTAB
0
TABLE
2
VIEW
5
6
100
AcDbSymbolTable
70
0
0
ENDTAB
0
TABLE
2
UCS
5
7
100
AcDbSymbolTable
70
0
0
ENDTAB
0
TABLE
2
APPID
5
9
100
AcDbSymbolTable
70
2
0
APPID
5
12
100
AcDbSymbolTableRecord
100
AcDbRegAppTableRecord
2
ACAD
70
0
0
ENDTAB
0
TABLE
2
DIMSTYLE
5
A
100
AcDbSymbolTable
70
1
0
ENDTAB
0
TABLE
2
BLOCK_RECORD
5
1
100
AcDbSymbolTable
70
1
0
BLOCK_RECORD
5
1F
100
AcDbSymbolTableRecord
100
AcDbBlockTableRecord
2
*MODEL_SPACE
0
BLOCK_RECORD
5
1B
100
AcDbSymbolTableRecord
100
AcDbBlockTableRecord
2
*PAPER_SPACE
0
ENDTAB
0
ENDSEC
0
SECTION
2
BLOCKS
0
BLOCK
5
20
100
AcDbEntity
100
AcDbBlockBegin
2
*MODEL_SPACE
0
ENDBLK
5
21
100
AcDbEntity
100
AcDbBlockEnd
0
BLOCK
5
1C
100
AcDbEntity
100
AcDbBlockBegin
2
*PAPER_SPACE
0
ENDBLK
5
1D
100
AcDbEntity
100
AcDbBlockEnd
0
ENDSEC
0
SECTION
2
ENTITIES
0
LWPOLYLINE
5
100
100
AcDbEntity
8
0
100
AcDbPolyline
90
6
70
1
43
0.0
10
21.25
20
29.965000000000003
10
21.252300000000002
20
30.017290000000006
42
-0.957291000000005
10
22.450000000000003
20
29.965000000000003
10
22.450000000000003
20
28.665000000000003
42
-0.95729100000000145
10
21.252300000000002
20
28.612710000000003
10
21.25
20
28.665000000000003
0
LINE
5
101
100
AcDbEntity
8
0
100
AcDbLine
10
0
20
65
30
0
11
1.3877787807814457e-14
21
59.700000000000017
31
3.9188697572715303e-15
0
LWPOLYLINE
5
102
100
AcDbEntity
8
0
100
AcDbPolyline
90
6
70
1
43
0.0
10
32.950000000000003
20
29.965000000000003
10
32.952280000000002
20
30.017290000000006
42
-0.95729100000000322
10
34.149999999999999
20
29.965000000000003
10
34.149999999999999
20
28.664999999999999
42
-0.95729100000000267
10
32.952280000000002
20
28.612710000000003
10
32.950000000000003
20
28.665000000000003
0
LWPOLYLINE
5
103
100
AcDbEntity
8
0
100
AcDbPolyline
90
4
70
1
43
0.0
10
29.350000000000001
20
29.281310000000001
42
0.94541900000000556
10
30.550000000000001
20
29.281310000000005
10
30.550000000000001
20
29.348690000000005
42
0.94541900000000179
10
29.350000000000001
20
29.348690000000005
0
LINE
5
104
100
AcDbEntity
8
0
100
AcDbLine
10
20
20
32
30
0
11
24.700000000000003
21
32
31
0
0
LINE
5
105
100
AcDbEntity
8
0
100
AcDbLine
10
25.700000000000003
20
33
30
0
11
25.700000000000003
21
34
31
0
0
LINE
5
106
100
AcDbEntity
8
0
100
AcDbLine
10
29.699999999999996
20
34
30
0
11
29.699999999999996
21
33
31
0
0
LWPOLYLINE
5
107
100
AcDbEntity
8
0
100
AcDbPolyline
90
4
70
1
43
0.0
10
26.050000000000001
20
29.348690000000005
10
26.050000000000001
20
29.281310000000005
42
-0.94541900000000179
10
24.849999999999998
20
29.281310000000005
10
24.849999999999998
20
29.348690000000005
42
-0.94541900000000179
0
LINE
5
108
100
AcDbEntity
8
0
100
AcDbLine
10
30.699999999999999
20
32
30
0
11
35.399999999999999
21
32
31
0
0
LWPOLYLINE
5
109
100
AcDbEntity
8
0
100
AcDbPolyline
90
6
70
1
43
0.0
10
12.95228
20
28.612710000000003
10
12.949999999999999
20
28.665000000000003
10
12.949999999999999
20
29.965000000000003
10
12.95228
20
30.017290000000006
42
-0.95729100000000267
10
14.15
20
29.965000000000003
10
14.15
20
28.664999999999999
42
-0.957291000000002
0
LWPOLYLINE
5
110
100
AcDbEntity
8
0
100
AcDbPolyline
90
6
70
1
43
0.0
10
42.449999999999989
20
71.334999999999994
10
42.449999999999989
20
70.034999999999997
10
42.44771999999999
20
69.982709999999997
42
-0.95729099999999823
10
41.25
20
70.034999999999997
10
41.25
20
71.334999999999994
42
-0.95729099999999823
10
42.44771999999999
20
71.387289999999993
0
LWPOLYLINE
5
111
100
AcDbEntity
8
0
100
AcDbPolyline
90
6
70
1
43
0.0
10
1.2522999999999993
20
28.612710000000003
42
0.95729100000000078
10
2.4500000000000011
20
28.665000000000003
10
2.4500000000000006
20
29.965000000000003
42
0.95729100000000444
10
1.2522999999999995
20
30.017290000000006
10
1.25
20
29.965000000000003
10
1.25
20
28.665000000000003
0
LWPOLYLINE
5
112
100
AcDbEntity
8
0
100
AcDbPolyline
90
6
70
1
43
0.0
10
22.447719999999993
20
71.387289999999993
42
0.95729099999999967
10
21.25
20
71.334999999999994
10
21.249999999999993
20
70.034999999999997
42
0.95729099999999967
10
22.447720000000004
20
69.982709999999997
10
22.450000000000003
20
70.034999999999997
10
22.450000000000003
20
71.334999999999994
0
LWPOLYLINE
5
113
100
AcDbEntity
8
0
100
AcDbPolyline
90
4
70
1
43
0.0
10
26.050000000000001
20
70.718689999999995
42
0.94541900000000945
10
24.849999999999998
20
70.718689999999995
10
24.849999999999998
20
70.651309999999995
42
0.94541900000000223
10
26.050000000000001
20
70.651309999999995
0
LINE
5
114
100
AcDbEntity
8
0
100
AcDbLine
10
0
20
35
30
0
11
4.7000000000000011
21
35
31
0
0
LINE
5
115
100
AcDbEntity
8
0
100
AcDbLine
10
9.6999999999999993
20
34
30
0
11
9.6999999999999993
21
33
31
0
0
LINE
5
116
100
AcDbEntity
8
0
100
AcDbLine
10
5.7000000000000011
20
33
30
0
11
5.7000000000000011
21
34
31
0
0
LWPOLYLINE
5
117
100
AcDbEntity
8
0
100
AcDbPolyline
90
4
70
1
43
0.0
10
4.8499999999999988
20
29.281310000000005
10
4.8499999999999988
20
29.348690000000005
42
-0.94541900000000179
10
6.0499999999999998
20
29.348690000000005
10
6.0499999999999998
20
29.281310000000005
42
-0.94541900000000179
0
LWPOLYLINE
5
118
100
AcDbEntity
8
0
100
AcDbPolyline
90
4
70
1
43
0.0
10
10.550000000000001
20
29.348690000000005
10
10.550000000000001
20
29.281310000000005
42
-0.94541900000000556
10
9.3500000000000014
20
29.281310000000001
10
9.3500000000000014
20
29.348690000000005
42
-0.94541900000000223
0
LINE
5
119
100
AcDbEntity
8
0
100
AcDbLine
10
0
20
35
30
0
11
8.3266726846886741e-15
21
40.300000000000011
31
3.9188697572715303e-15
0
LINE
5
120
100
AcDbEntity
8
0
100
AcDbLine
10
10.700000000000001
20
32
30
0
11
15.4
21
32
31
0
0
LWPOLYLINE
5
121
100
AcDbEntity
8
0
100
AcDbPolyline
90
4
70
1
43
0.0
10
29.350000000000001
20
70.651309999999995
42
0.94541900000000945
10
30.550000000000001
20
70.651309999999995
10
30.550000000000001
20
70.718689999999995
42
0.94541900000000945
10
29.350000000000001
20
70.718689999999995
0
LWPOLYLINE
5
122
100
AcDbEntity
8
0
100
AcDbPolyline
90
4
70
1
43
0.0
10
46.049999999999997
20
70.718689999999995
10
46.049999999999997
20
70.651309999999995
42
-0.94541900000000223
10
44.849999999999994
20
70.651309999999995
10
44.849999999999994
20
70.718689999999995
42
-0.94541900000000945
0
LWPOLYLINE
5
123
100
AcDbEntity
8
0
100
AcDbPolyline
90
6
70
1
43
0.0
10
32.950000000000003
20
70.034999999999997
10
32.950000000000003
20
71.334999999999994
42
-0.95729100000000733
10
34.1477
20
71.387289999999993
10
34.149999999999999
20
71.334999999999994
10
34.149999999999999
20
70.034999999999997
10
34.1477
20
69.982709999999997
42
-0.95729100000000733
0
LWPOLYLINE
5
124
100
AcDbEntity
8
0
100
AcDbPolyline
90
6
70
1
43
0.0
10
28.665000000000013
20
44.750000000000007
10
29.965000000000011
20
44.750000000000007
10
30.017290000000013
20
44.747720000000008
42
-0.95729100000000322
10
29.965000000000011
20
43.550000000000004
10
28.665000000000013
20
43.550000000000004
42
-0.95729099999999967
10
28.612710000000014
20
44.747720000000008
0
LWPOLYLINE
5
125
100
AcDbEntity
8
0
100
AcDbPolyline
90
6
70
1
43
0.0
10
41.252299999999991
20
28.612710000000003
10
41.25
20
28.665000000000003
10
41.25
20
29.965000000000003
10
41.252299999999991
20
30.017290000000006
42
-0.957291000000005
10
42.449999999999989
20
29.965000000000003
10
42.449999999999989
20
28.665000000000003
42
-0.95729100000000145
0
LINE
5
126
100
AcDbEntity
8
0
100
AcDbLine
10
20
20
68
30
0
11
24.700000000000003
21
68
31
0
0
LINE
5
127
100
AcDbEntity
8
0
100
AcDbLine
10
35.000000000000014
20
47.000000000000014
30
2.2139069407962512e-15
11
35.000000000000014
21
41.300000000000011
31
3.6643976951110398e-15
0
LWPOLYLINE
5
128
100
AcDbEntity
8
0
100
AcDbPolyline
90
4
70
1
43
0.0
10
46.049999999999997
20
29.348690000000005
10
46.049999999999997
20
29.281310000000005
42
-0.94541900000000179
10
44.849999999999994
20
29.281310000000005
10
44.849999999999994
20
29.348690000000005
42
-0.94541900000000179
0
LINE
5
129
100
AcDbEntity
8
0
100
AcDbLine
10
32.000000000000014
20
42.300000000000004
30
0
11
32.000000000000014
21
47
31
1.6156743736119476e-15
0
LINE
5
130
100
AcDbEntity
8
0
100
AcDbLine
10
95.399999999999991
20
59.699999999999989
30
-6.2354399962999104e-16
11
95.399999999999991
21
65
31
-6.2354399962999104e-16
0
LINE
5
131
100
AcDbEntity
8
0
100
AcDbLine
10
5.7000000000000011
20
66
30
0
11
5.7000000000000011
21
67
31
0
0
LINE
5
132
100
AcDbEntity
8
0
100
AcDbLine
10
10.700000000000001
20
68
30
0
11
15.4
21
68
31
0
0
LINE
5
133
100
AcDbEntity
8
0
100
AcDbLine
10
30.699999999999999
20
68
30
0
11
35.399999999999999
21
68
31
0
0
LINE
5
134
100
AcDbEntity
8
0
100
AcDbLine
10
30.699999999999999
20
35
30
0
11
44.700000000000003
21
35
31
0
0
LINE
5
135
100
AcDbEntity
8
0
100
AcDbLine
10
0
20
68
30
0
11
4.7000000000000011
21
68
31
0
0
LINE
5
136
100
AcDbEntity
8
0
100
AcDbLine
10
9.6999999999999993
20
66
30
0
11
9.6999999999999975
21
67
31
0
0
LINE
5
137
100
AcDbEntity
8
0
100
AcDbLine
10
39.999999999999993
20
32
30
0
11
44.700000000000003
21
32
31
0
0
LINE
5
138
100
AcDbEntity
8
0
100
AcDbLine
10
4.7000000000000011
20
65
30
0
11
0
21
65
31
0
0
LINE
5
139
100
AcDbEntity
8
0
100
AcDbLine
10
25.700000000000003
20
66
30
0
11
25.699999999999999
21
67
31
0
0
LINE
5
140
100
AcDbEntity
8
0
100
AcDbLine
10
29.699999999999996
20
66
30
0
11
29.700000000000003
21
67
31
0
0
LINE
5
141
100
AcDbEntity
8
0
100
AcDbLine
10
39.999999999999993
20
68
30
0
11
44.700000000000003
21
68
31
0
0
LINE
5
142
100
AcDbEntity
8
0
100
AcDbLine
10
45.700000000000003
20
66
30
0
11
45.700000000000003
21
67
31
0
0
LINE
5
143
100
AcDbEntity
8
0
100
AcDbLine
10
1.2000000000000088
20
42.300000000000011
30
3.9188697572715303e-15
11
1.2000000000000133
21
57.700000000000017
31
3.9188697572715303e-15
0
LINE
5
144
100
AcDbEntity
8
0
100
AcDbLine
10
24.700000000000003
20
65
30
0
11
10.699999999999999
21
65
31
0
0
LINE
5
145
100
AcDbEntity
8
0
100
AcDbLine
10
44.700000000000003
20
65
30
0
11
30.699999999999999
21
65
31
0
0
LINE
5
146
100
AcDbEntity
8
0
100
AcDbLine
10
45.700000000000003
20
33
30
0
11
45.700000000000003
21
34
31
0
0
LINE
5
147
100
AcDbEntity
8
0
100
AcDbLine
10
33.000000000000014
20
48.000000000000007
30
1.9594348786357651e-15
11
34.000000000000014
21
47.999999999999986
31
1.9594348786357647e-15
0
LWPOLYLINE
5
148
100
AcDbEntity
8
0
100
AcDbPolyline
90
6
70
1
43
0.0
10
29.965000000000014
20
55.249999999999993
42
0.95729099999999767
10
30.017290000000017
20
56.447700000000005
10
29.965000000000014
20
56.450000000000003
10
28.665000000000017
20
56.450000000000003
10
28.612710000000018
20
56.447699999999998
42
0.95729100000000145
10
28.665000000000013
20
55.25
0
LWPOLYLINE
5
149
100
AcDbEntity
8
0
100
AcDbPolyline
90
4
70
1
43
0.0
10
29.348690000000012
20
47.150000000000006
10
29.281310000000012
20
47.150000000000006
42
-0.94541900000000179
10
29.281310000000012
20
48.350000000000009
10
29.348690000000019
20
48.350000000000009
42
-0.94541899999999901
0
LINE
5
150
100
AcDbEntity
8
0
100
AcDbLine
10
60
20
32
30
0
11
64.700000000000003
21
32
31
0
0
LWPOLYLINE
5
151
100
AcDbEntity
8
0
100
AcDbPolyline
90
4
70
1
43
0.0
10
6.0499999999999998
20
70.718689999999995
10
6.0499999999999989
20
70.651309999999995
42
-0.94541900000000223
10
4.8499999999999996
20
70.651309999999995
10
4.8499999999999988
20
70.718689999999995
42
-0.94541900000000945
0
LWPOLYLINE
5
152
100
AcDbEntity
8
0
100
AcDbPolyline
90
6
70
1
43
0.0
10
65.434999999999988
20
44.75000000000005
10
66.734999999999985
20
44.75000000000005
42
-0.9572910000000221
10
66.787289999999985
20
43.552300000000052
10
66.734999999999985
20
43.550000000000047
10
65.434999999999988
20
43.550000000000047
10
65.382709999999989
20
43.552300000000052
42
-0.95729099999999467
0
LWPOLYLINE
5
153
100
AcDbEntity
8
0
100
AcDbPolyline
90
6
70
1
43
0.0
10
14.1477
20
71.387289999999993
10
14.15
20
71.334999999999994
10
14.15
20
70.034999999999997
10
14.1477
20
69.982709999999997
42
-0.957291000000008
10
12.949999999999999
20
70.034999999999997
10
12.949999999999999
20
71.334999999999994
42
-0.957291000000008
0
LWPOLYLINE
5
154
100
AcDbEntity
8
0
100
AcDbPolyline
90
6
70
1
43
0.0
10
66.787289999999985
20
55.252280000000049
10
66.734999999999985
20
55.25000000000005
10
65.434999999999988
20
55.25000000000005
10
65.382709999999989
20
55.252280000000049
42
-0.95729100000001366
10
65.434999999999988
20
56.450000000000045
10
66.734999999999985
20
56.450000000000045
42
-0.95729100000001366
0
LINE
5
155
100
AcDbEntity
8
0
100
AcDbLine
10
39.999999999999993
20
68
30
0
11
39.999999999999993
21
98.800000000000011
31
3.9188697572715303e-15
0
LWPOLYLINE
5
156
100
AcDbEntity
8
0
100
AcDbPolyline
90
4
70
1
43
0.0
10
9.3500000000000014
20
70.651309999999995
42
0.94541900000000945
10
10.550000000000001
20
70.651309999999995
10
10.550000000000001
20
70.718689999999995
42
0.94541900000000945
10
9.3500000000000014
20
70.718689999999995
0
LINE
5
157
100
AcDbEntity
8
0
100
AcDbLine
10
49.699999999999996
20
66
30
0
11
49.699999999999996
21
67
31
0
0
LWPOLYLINE
5
158
100
AcDbEntity
8
0
100
AcDbPolyline
90
4
70
1
43
0.0
10
66.118689999999987
20
51.650000000000055
42
0.94541899999999635
10
66.118690000000001
20
52.850000000000044
10
66.051309999999987
20
52.850000000000051
42
0.94541900000000945
10
66.051309999999972
20
51.650000000000048
0
LWPOLYLINE
5
159
100
AcDbEntity
8
0
100
AcDbPolyline
90
6
70
1
43
0.0
10
1.2499999999999998
20
70.034999999999997
42
0.95729099999999967
10
2.4477200000000003
20
69.982709999999997
10
2.4500000000000002
20
70.034999999999997
10
2.4500000000000002
20
71.334999999999994
10
2.4477200000000003
20
71.387289999999993
42
0.957290999999999
10
1.25
20
71.334999999999994
0
LINE
5
160
100
AcDbEntity
8
0
100
AcDbLine
10
63.399999999999991
20
47
30
3.2313487472238898e-15
11
63.399999999999991
21
42.300000000000047
31
0
0
LINE
5
161
100
AcDbEntity
8
0
100
AcDbLine
10
0
20
98.800000000000011
30
3.9188697572715303e-15
11
15.4
21
98.800000000000011
31
3.9188697572715303e-15
0
LINE
5
162
100
AcDbEntity
8
0
100
AcDbLine
10
20
20
98.800000000000011
30
3.9188697572715303e-15
11
35.399999999999999
21
98.800000000000011
31
3.9188697572715303e-15
0
LWPOLYLINE
5
163
100
AcDbEntity
8
0
100
AcDbPolyline
90
4
70
1
43
0.0
10
66.051309999999987
20
48.350000000000044
10
66.118690000000001
20
48.350000000000044
42
-0.94541899999999557
10
66.118690000000001
20
47.150000000000048
10
66.051309999999972
20
47.150000000000048
42
-0.94541900000000878
0
LINE
5
164
100
AcDbEntity
8
0
100
AcDbLine
10
20
20
68
30
0
11
20
21
98.800000000000011
31
3.9188697572715303e-15
0
LINE
5
165
100
AcDbEntity
8
0
100
AcDbLine
10
35.399999999999999
20
98.800000000000011
30
3.9188697572715303e-15
11
35.399999999999999
21
68
31
0
0
LINE
5
166
100
AcDbEntity
8
0
100
AcDbLine
10
0
20
68
30
0
11
0
21
98.800000000000011
31
3.9188697572715303e-15
0
LINE
5
167
100
AcDbEntity
8
0
100
AcDbLine
10
60.399999999999991
20
58.700000000000003
30
9.7013091798810579e-16
11
60.399999999999991
21
53
31
3.328945892738866e-15
0
LINE
5
168
100
AcDbEntity
8
0
100
AcDbLine
10
15.4
20
98.800000000000011
30
3.9188697572715303e-15
11
15.4
21
68
31
0
0
LINE
5
169
100
AcDbEntity
8
0
100
AcDbLine
10
60.399999999999991
20
41.299999999999983
30
-3.3620135097329133e-17
11
60.399999999999991
21
47
31
3.328945892738868e-15
0
LINE
5
170
100
AcDbEntity
8
0
100
AcDbLine
10
61.399999999999991
20
52
30
3.9188697572715326e-15
11
62.399999999999991
21
52
31
3.9188697572715303e-15
0
LINE
5
171
100
AcDbEntity
8
0
100
AcDbLine
10
63.399999999999991
20
57.700000000000045
30
0
11
63.399999999999991
21
53
31
3.2313487472239048e-15
0
LINE
5
172
100
AcDbEntity
8
0
100
AcDbLine
10
15.4
20
32
30
0
11
15.399999999999995
21
1.2
31
3.9188697572715303e-15
0
LINE
5
173
100
AcDbEntity
8
0
100
AcDbLine
10
-4.2743586448068527e-15
20
1.2
30
3.9188697572715303e-15
11
0
21
32
31
0
0
LINE
5
174
100
AcDbEntity
8
0
100
AcDbLine
10
1.2000000000000133
20
57.700000000000017
30
3.9188697572715303e-15
11
32.000000000000014
21
57.700000000000003
31
0
0
LINE
5
175
100
AcDbEntity
8
0
100
AcDbLine
10
39.999999999999993
20
1.2
30
3.9188697572715303e-15
11
39.999999999999993
21
32
31
0
0
LWPOLYLINE
5
176
100
AcDbEntity
8
0
100
AcDbPolyline
90
4
70
1
43
0.0
10
29.281310000000012
20
52.850000000000001
10
29.348690000000019
20
52.850000000000001
42
-0.94541899999999901
10
29.348690000000012
20
51.650000000000006
10
29.281310000000012
20
51.650000000000006
42
-0.94541900000000179
0
LINE
5
177
100
AcDbEntity
8
0
100
AcDbLine
10
0
20
32
30
0
11
4.7000000000000011
21
32
31
0
0
LINE
5
178
100
AcDbEntity
8
0
100
AcDbLine
10
35.000000000000014
20
58.70000000000001
30
3.23141538039021e-15
11
35.000000000000014
21
53
31
2.2139069407962536e-15
0
LINE
5
179
100
AcDbEntity
8
0
100
AcDbLine
10
32.000000000000014
20
42.300000000000004
30
0
11
1.2000000000000088
21
42.300000000000011
31
3.9188697572715303e-15
0
LINE
5
180
100
AcDbEntity
8
0
100
AcDbLine
10
32.000000000000014
20
57.700000000000003
30
0
11
32.000000000000014
21
53
31
1.6156743736119482e-15
0
LINE
5
181
100
AcDbEntity
8
0
100
AcDbLine
10
33.000000000000014
20
52
30
1.9594348786357663e-15
11
34.000000000000014
21
52
31
1.9594348786357651e-15
0
LINE
5
182
100
AcDbEntity
8
0
100
AcDbLine
10
35.399999999999999
20
1.2
30
3.9188697572715303e-15
11
19.999999999999996
21
1.2
31
3.9188697572715303e-15
0
LINE
5
183
100
AcDbEntity
8
0
100
AcDbLine
10
60
20
68
30
0
11
64.700000000000003
21
68
31
0
0
LINE
5
184
100
AcDbEntity
8
0
100
AcDbLine
10
50.699999999999996
20
68
30
0
11
55.399999999999991
21
68
31
0
0
LWPOLYLINE
5
185
100
AcDbEntity
8
0
100
AcDbPolyline
90
4
70
1
43
0.0
10
49.349999999999994
20
70.651309999999995
10
49.349999999999994
20
70.718689999999995
42
-0.94541900000000945
10
50.549999999999997
20
70.718689999999995
10
50.549999999999997
20
70.651309999999995
42
-0.94541900000000945
0
LWPOLYLINE
5
186
100
AcDbEntity
8
0
100
AcDbPolyline
90
4
70
1
43
0.0
10
64.849999999999994
20
29.281310000000005
42
0.94541900000000223
10
66.050000000000011
20
29.281310000000005
10
66.050000000000011
20
29.348690000000005
42
0.94541900000000223
10
64.849999999999994
20
29.348690000000005
0
LWPOLYLINE
5
187
100
AcDbEntity
8
0
100
AcDbPolyline
90
6
70
1
43
0.0
10
54.1477
20
71.387289999999993
10
54.149999999999991
20
71.334999999999994
10
54.149999999999991
20
70.034999999999997
10
54.1477
20
69.982709999999997
42
-0.957291000000008
10
52.950000000000003
20
70.034999999999997
10
52.950000000000003
20
71.334999999999994
42
-0.957291000000008
0
LWPOLYLINE
5
188
100
AcDbEntity
8
0
100
AcDbPolyline
90
6
70
1
43
0.0
10
61.25
20
70.034999999999997
10
61.25
20
71.334999999999994
42
-0.95729099999999967
10
62.447720000000004
20
71.387289999999993
10
62.450000000000003
20
71.334999999999994
10
62.450000000000003
20
70.034999999999997
10
62.447720000000004
20
69.982709999999997
42
-0.95729099999999967
0
LWPOLYLINE
5
189
100
AcDbEntity
8
0
100
AcDbPolyline
90
6
70
1
43
0.0
10
62.449999999999989
20
29.965000000000003
42
0.95729100000000444
10
61.252300000000005
20
30.017290000000006
10
61.25
20
29.965000000000003
10
61.25
20
28.665000000000003
10
61.252299999999991
20
28.612710000000003
42
0.95729100000000023
10
62.450000000000003
20
28.665000000000003
0
LINE
5
190
100
AcDbEntity
8
0
100
AcDbLine
10
35.399999999999999
20
32
30
0
11
35.399999999999999
21
1.2
31
3.9188697572715303e-15
0
LINE
5
191
100
AcDbEntity
8
0
100
AcDbLine
10
15.399999999999995
20
1.2
30
3.9188697572715303e-15
11
-4.2743586448068527e-15
21
1.2
31
3.9188697572715303e-15
0
LINE
5
192
100
AcDbEntity
8
0
100
AcDbLine
10
19.999999999999996
20
1.2
30
3.9188697572715303e-15
11
20
21
32
31
0
0
LINE
5
193
100
AcDbEntity
8
0
100
AcDbLine
10
10.700000000000001
20
35
30
0
11
24.700000000000003
21
35
31
0
0
LINE
5
194
100
AcDbEntity
8
0
100
AcDbLine
10
1.3877787807814457e-14
20
59.700000000000017
30
3.9188697572715303e-15
11
34.000000000000007
21
59.700000000000003
31
3.9188697572715279e-15
0
LINE
5
195
100
AcDbEntity
8
0
100
AcDbLine
10
8.3266726846886741e-15
20
40.300000000000011
30
3.9188697572715303e-15
11
34.000000000000007
21
40.300000000000004
31
3.9188697572715295e-15
0
LINE
5
196
100
AcDbEntity
8
0
100
AcDbLine
10
61.399999999999991
20
48
30
3.9188697572715342e-15
11
62.399999999999991
21
48
31
3.9188697572715326e-15
0
LWPOLYLINE
5
197
100
AcDbEntity
8
0
100
AcDbPolyline
90
4
70
1
43
0.0
10
66.050000000000011
20
70.718689999999995
10
66.049999999999997
20
70.651309999999995
42
-0.94541900000000179
10
64.850000000000009
20
70.651309999999995
10
64.849999999999994
20
70.718689999999995
42
-0.94541900000000967
0
LWPOLYLINE
5
198
100
AcDbEntity
8
0
100
AcDbPolyline
90
6
70
1
43
0.0
10
52.950000000000003
20
28.665000000000003
10
52.950000000000003
20
29.965000000000003
10
52.952280000000002
20
30.017290000000006
42
-0.95729100000000267
10
54.149999999999991
20
29.965000000000003
10
54.149999999999991
20
28.664999999999999
42
-0.957291000000002
10
52.952280000000002
20
28.612710000000003
0
LINE
5
199
100
AcDbEntity
8
0
100
AcDbLine
10
60
20
68
30
0
11
60
21
98.800000000000011
31
3.9188697572715303e-15
0
LINE
5
200
100
AcDbEntity
8
0
100
AcDbLine
10
50.699999999999996
20
35
30
0
11
64.700000000000003
21
35
31
0
0
LINE
5
201
100
AcDbEntity
8
0
100
AcDbLine
10
49.699999999999989
20
34
30
0
11
49.699999999999996
21
33
31
0
0
LINE
5
202
100
AcDbEntity
8
0
100
AcDbLine
10
59.999999999999993
20
1.2
30
3.9188697572715303e-15
11
60
21
32
31
0
0
LINE
5
203
100
AcDbEntity
8
0
100
AcDbLine
10
64.700000000000003
20
65
30
0
11
50.699999999999996
21
65
31
0
0
LWPOLYLINE
5
204
100
AcDbEntity
8
0
100
AcDbPolyline
90
4
70
1
43
0.0
10
49.349999999999994
20
29.281310000000001
10
49.349999999999994
20
29.348690000000005
42
-0.94541900000000179
10
50.549999999999997
20
29.348690000000005
10
50.549999999999997
20
29.281310000000005
42
-0.94541900000000556
0
LINE
5
205
100
AcDbEntity
8
0
100
AcDbLine
10
55.399999999999991
20
98.800000000000011
30
3.9188697572715303e-15
11
55.399999999999991
21
68
31
0
0
LINE
5
206
100
AcDbEntity
8
0
100
AcDbLine
10
50.699999999999996
20
32.000000000000007
30
0
11
55.399999999999991
21
32
31
0
0
LINE
5
207
100
AcDbEntity
8
0
100
AcDbLine
10
65.700000000000003
20
33
30
0
11
65.700000000000003
21
34
31
0
0
LINE
5
208
100
AcDbEntity
8
0
100
AcDbLine
10
65.700000000000003
20
66
30
0
11
65.700000000000003
21
67
31
0
0
LINE
5
209
100
AcDbEntity
8
0
100
AcDbLine
10
55.399999999999991
20
32
30
0
11
55.399999999999991
21
1.2
31
3.9188697572715303e-15
0
LINE
5
210
100
AcDbEntity
8
0
100
AcDbLine
10
69.700000000000003
20
66
30
0
11
69.700000000000003
21
67
31
0
0
LINE
5
211
100
AcDbEntity
8
0
100
AcDbLine
10
70.699999999999989
20
68
30
0
11
75.400000000000006
21
68
31
0
0
LINE
5
212
100
AcDbEntity
8
0
100
AcDbLine
10
80
20
68
30
0
11
84.700000000000003
21
68
31
0
0
LINE
5
213
100
AcDbEntity
8
0
100
AcDbLine
10
95.399999999999991
20
65
30
-6.2354399962999104e-16
11
90.700000000000017
21
65
31
-1.0939368414561436e-16
0
LINE
5
214
100
AcDbEntity
8
0
100
AcDbLine
10
90.700000000000003
20
68
30
0
11
95.399999999999991
21
68
31
0
0
LINE
5
215
100
AcDbEntity
8
0
100
AcDbLine
10
89.700000000000017
20
66
30
-2.1570415377137042e-31
11
89.700000000000017
21
67
31
0
0
LINE
5
216
100
AcDbEntity
8
0
100
AcDbLine
10
85.700000000000003
20
66
30
0
11
85.700000000000003
21
67
31
0
0
LINE
5
217
100
AcDbEntity
8
0
100
AcDbLine
10
84.700000000000003
20
65
30
0
11
70.699999999999989
21
65
31
0
0
LWPOLYLINE
5
218
100
AcDbEntity
8
0
100
AcDbPolyline
90
6
70
1
43
0.0
10
72.950000000000003
20
28.665000000000003
10
72.950000000000003
20
29.965000000000003
10
72.952280000000002
20
30.017290000000006
42
-0.95729100000000322
10
74.150000000000006
20
29.965000000000003
10
74.150000000000006
20
28.664999999999999
42
-0.95729100000000267
10
72.952280000000002
20
28.612710000000003
0
LWPOLYLINE
5
219
100
AcDbEntity
8
0
100
AcDbPolyline
90
4
70
1
43
0.0
10
70.549999999999997
20
29.348690000000005
10
70.549999999999997
20
29.281310000000005
42
-0.94541900000000556
10
69.350000000000009
20
29.281310000000001
10
69.350000000000009
20
29.348690000000005
42
-0.94541900000000179
0
LWPOLYLINE
5
220
100
AcDbEntity
8
0
100
AcDbPolyline
90
6
70
1
43
0.0
10
94.147699999999986
20
71.387289999999993
42
0.95729100000000944
10
92.950000000000003
20
71.334999999999994
10
92.949999999999989
20
70.034999999999997
42
0.95729100000000944
10
94.147700000000015
20
69.982709999999997
10
94.149999999999991
20
70.034999999999997
10
94.149999999999991
20
71.334999999999994
0
LWPOLYLINE
5
221
100
AcDbEntity
8
0
100
AcDbPolyline
90
6
70
1
43
0.0
10
74.147699999999986
20
71.387289999999993
42
0.957291000000008
10
72.950000000000003
20
71.334999999999994
10
72.949999999999989
20
70.034999999999997
42
0.957291000000008
10
74.1477
20
69.982709999999997
10
74.150000000000006
20
70.034999999999997
10
74.150000000000006
20
71.334999999999994
0
LINE
5
222
100
AcDbEntity
8
0
100
AcDbLine
10
80
20
98.800000000000011
30
3.9188697572715303e-15
11
95.399999999999991
21
98.800000000000011
31
3.9188697572715303e-15
0
LWPOLYLINE
5
223
100
AcDbEntity
8
0
100
AcDbPolyline
90
4
70
1
43
0.0
10
69.350000000000009
20
70.651309999999995
42
0.94541900000000878
10
70.549999999999997
20
70.651309999999995
10
70.549999999999997
20
70.718689999999995
42
0.94541900000000878
10
69.350000000000009
20
70.718689999999995
0
LWPOLYLINE
5
224
100
AcDbEntity
8
0
100
AcDbPolyline
90
4
70
1
43
0.0
10
89.350000000000023
20
70.651310000000009
42
0.94541900000000878
10
90.549999999999997
20
70.651309999999995
10
90.550000000000011
20
70.718689999999995
42
0.94541900000000878
10
89.350000000000009
20
70.718689999999995
0
LINE
5
225
100
AcDbEntity
8
0
100
AcDbLine
10
70.699999999999989
20
32
30
0
11
75.400000000000006
21
32
31
0
0
LWPOLYLINE
5
226
100
AcDbEntity
8
0
100
AcDbPolyline
90
6
70
1
43
0.0
10
82.449999999999989
20
70.034999999999997
10
82.44771999999999
20
69.982709999999997
42
-0.95729099999999823
10
81.25
20
70.034999999999997
10
81.25
20
71.334999999999994
42
-0.95729099999999823
10
82.44771999999999
20
71.387289999999993
10
82.449999999999989
20
71.334999999999994
0
LINE
5
227
100
AcDbEntity
8
0
100
AcDbLine
10
69.700000000000003
20
34
30
0
11
69.699999999999989
21
33
31
0
0
LWPOLYLINE
5
228
100
AcDbEntity
8
0
100
AcDbPolyline
90
4
70
1
43
0.0
10
84.849999999999994
20
70.651309999999995
42
0.94541900000000267
10
86.050000000000011
20
70.651309999999995
10
86.050000000000011
20
70.718689999999995
42
0.94541900000000967
10
84.849999999999994
20
70.718689999999995
0
LWPOLYLINE
5
229
100
AcDbEntity
8
0
100
AcDbPolyline
90
4
70
1
43
0.0
10
90.550000000000011
20
29.348690000000005
42
0.94541900000000179
10
89.350000000000009
20
29.348690000000005
10
89.350000000000023
20
29.281310000000001
42
0.94541900000000556
10
90.549999999999997
20
29.281310000000005
0
LWPOLYLINE
5
230
100
AcDbEntity
8
0
100
AcDbPolyline
90
6
70
1
43
0.0
10
82.450000000000017
20
29.965000000000003
10
82.450000000000017
20
28.665000000000003
42
-0.95729100000000078
10
81.252300000000005
20
28.612710000000003
10
81.25
20
28.665000000000003
10
81.25
20
29.965000000000003
10
81.252300000000005
20
30.017290000000006
42
-0.95729100000000444
0
LWPOLYLINE
5
231
100
AcDbEntity
8
0
100
AcDbPolyline
90
6
70
1
43
0.0
10
94.149999999999991
20
29.965000000000003
10
94.149999999999991
20
28.664999999999999
42
-0.957291000000002
10
92.952280000000002
20
28.612710000000003
10
92.950000000000003
20
28.665000000000003
10
92.950000000000003
20
29.965000000000003
10
92.952280000000002
20
30.017290000000006
42
-0.95729100000000322
0
LWPOLYLINE
5
232
100
AcDbEntity
8
0
100
AcDbPolyline
90
4
70
1
43
0.0
10
86.050000000000011
20
29.348690000000005
42
0.94541900000000223
10
84.849999999999994
20
29.348690000000005
10
84.849999999999994
20
29.281310000000005
42
0.94541900000000223
10
86.050000000000011
20
29.281310000000005
0
LINE
5
233
100
AcDbEntity
8
0
100
AcDbLine
10
75.400000000000006
20
98.800000000000011
30
3.9188697572715303e-15
11
75.400000000000006
21
68
31
0
0
LINE
5
234
100
AcDbEntity
8
0
100
AcDbLine
10
95.399999999999991
20
98.800000000000011
30
3.9188697572715303e-15
11
95.399999999999991
21
68
31
0
0
LINE
5
235
100
AcDbEntity
8
0
100
AcDbLine
10
80
20
68
30
0
11
80
21
98.800000000000011
31
3.9188697572715303e-15
0
LINE
5
236
100
AcDbEntity
8
0
100
AcDbLine
10
95.399999999999991
20
40.299999999999983
30
-6.2354399962999104e-16
11
95.399999999999991
21
35
31
-6.2354399962999104e-16
0
LINE
5
237
100
AcDbEntity
8
0
100
AcDbLine
10
60
20
98.800000000000011
30
3.9188697572715303e-15
11
75.400000000000006
21
98.800000000000011
31
3.9188697572715303e-15
0
LINE
5
238
100
AcDbEntity
8
0
100
AcDbLine
10
39.999999999999993
20
98.800000000000011
30
3.9188697572715303e-15
11
55.399999999999991
21
98.800000000000011
31
3.9188697572715303e-15
0
LINE
5
239
100
AcDbEntity
8
0
100
AcDbLine
10
95.399999999999991
20
32
30
0
11
90.700000000000003
21
32
31
0
0
LINE
5
240
100
AcDbEntity
8
0
100
AcDbLine
10
90.700000000000017
20
35
30
-1.0939368414561431e-16
11
95.399999999999991
21
35
31
-6.2354399962999104e-16
0
LINE
5
241
100
AcDbEntity
8
0
100
AcDbLine
10
80
20
32
30
0
11
84.700000000000003
21
32
31
0
0
LINE
5
242
100
AcDbEntity
8
0
100
AcDbLine
10
89.700000000000017
20
33.999999999999993
30
-8.3200173597528589e-31
11
89.700000000000017
21
33
31
0
0
LINE
5
243
100
AcDbEntity
8
0
100
AcDbLine
10
85.700000000000003
20
33
30
0
11
85.700000000000003
21
34
31
0
0
LINE
5
244
100
AcDbEntity
8
0
100
AcDbLine
10
70.699999999999989
20
35.000000000000007
30
0
11
84.700000000000003
21
35
31
0
0
LINE
5
245
100
AcDbEntity
8
0
100
AcDbLine
10
94.200000000000003
20
57.700000000000031
30
3.9188697572715303e-15
11
94.200000000000003
21
42.300000000000033
31
3.9188697572715303e-15
0
LINE
5
246
100
AcDbEntity
8
0
100
AcDbLine
10
95.399999999999991
20
1.2
30
3.9188697572715303e-15
11
80
21
1.2
31
3.9188697572715303e-15
0
LINE
5
247
100
AcDbEntity
8
0
100
AcDbLine
10
95.399999999999991
20
32
30
0
11
95.399999999999991
21
1.2
31
3.9188697572715303e-15
0
LINE
5
248
100
AcDbEntity
8
0
100
AcDbLine
10
75.399999999999991
20
32
30
0
11
75.399999999999991
21
1.2
31
3.9188697572715303e-15
0
LINE
5
249
100
AcDbEntity
8
0
100
AcDbLine
10
80
20
1.2
30
3.9188697572715303e-15
11
80
21
32
31
0
0
LINE
5
250
100
AcDbEntity
8
0
100
AcDbLine
10
63.399999999999991
20
57.700000000000045
30
0
11
94.200000000000003
21
57.700000000000031
31
3.9188697572715303e-15
0
LINE
5
251
100
AcDbEntity
8
0
100
AcDbLine
10
94.200000000000003
20
42.300000000000033
30
3.9188697572715303e-15
11
63.399999999999991
21
42.300000000000047
31
0
0
LINE
5
252
100
AcDbEntity
8
0
100
AcDbLine
10
75.399999999999991
20
1.2
30
3.9188697572715303e-15
11
59.999999999999993
21
1.2
31
3.9188697572715303e-15
0
LINE
5
253
100
AcDbEntity
8
0
100
AcDbLine
10
95.399999999999991
20
40.299999999999983
30
-6.2354399962999104e-16
11
61.399999999999991
21
40.299999999999983
31
-6.2354399962999331e-16
0
LINE
5
254
100
AcDbEntity
8
0
100
AcDbLine
10
95.399999999999991
20
59.699999999999989
30
-6.2354399962999104e-16
11
61.399999999999991
21
59.699999999999996
31
-6.2354399962999262e-16
0
LINE
5
255
100
AcDbEntity
8
0
100
AcDbLine
10
55.399999999999991
20
1.2
30
3.9188697572715303e-15
11
39.999999999999993
21
1.2
31
3.9188697572715303e-15
0
ARC
5
256
100
AcDbEntity
8
0
100
AcDbCircle
10
4.7000000000000055
20
67
30
0
40
0.99999999999999478
210
0
220
0
230
1
100
AcDbArc
50
0
51
90.000000000000256
0
ARC
5
257
100
AcDbEntity
8
0
100
AcDbCircle
10
10.699999999999994
20
67
30
0
40
0.99999999999999645
210
0
220
-0
230
1
100
AcDbArc
50
89.999999999999588
51
180
0
ARC
5
258
100
AcDbEntity
8
0
100
AcDbCircle
10
24.70000000000001
20
67.000000000000014
30
0
40
0.99999999999998757
210
-0
220
0
230
1
100
AcDbArc
50
0
51
90.000000000000398
0
ARC
5
259
100
AcDbEntity
8
0
100
AcDbCircle
10
30.699999999999989
20
67.000000000000014
30
0
40
0.99999999999998757
210
0
220
-0
230
1
100
AcDbArc
50
89.999999999999389
51
180
0
ARC
5
260
100
AcDbEntity
8
0
100
AcDbCircle
10
44.700000000000003
20
67
30
0
40
0.99999999999999645
210
0
220
-0
230
1
100
AcDbArc
50
0
51
90
0
ARC
5
261
100
AcDbEntity
8
0
100
AcDbCircle
10
50.699999999999996
20
67
30
0
40
0.99999999999999645
210
0
220
-0
230
1
100
AcDbArc
50
90
51
180
0
ARC
5
262
100
AcDbEntity
8
0
100
AcDbCircle
10
64.700000000000003
20
67
30
0
40
0.99999999999999645
210
0
220
-0
230
1
100
AcDbArc
50
0
51
90
0
ARC
5
263
100
AcDbEntity
8
0
100
AcDbCircle
10
70.699999999999989
20
67
30
0
40
0.99999999999999645
210
0
220
-0
230
1
100
AcDbArc
50
90
51
180
0
ARC
5
264
100
AcDbEntity
8
0
100
AcDbCircle
10
84.700000000000003
20
67
30
0
40
0.99999999999999645
210
0
220
-0
230
1
100
AcDbArc
50
0
51
90
0
ARC
5
265
100
AcDbEntity
8
0
100
AcDbCircle
10
90.700000000000003
20
67.000000000000014
30
0
40
0.99999999999998757
210
0
220
-0
230
1
100
AcDbArc
50
90
51
180
0
ARC
5
266
100
AcDbEntity
8
0
100
AcDbCircle
10
33.000000000000014
20
53
30
1.6156743736119504e-15
40
0.99999999999999645
210
-2.2186712959341034e-30
220
3.4376050502381704e-16
230
1
100
AcDbArc
50
180
51
270
0
ARC
5
267
100
AcDbEntity
8
0
100
AcDbCircle
10
33
20
47.000000000000014
30
1.6156743736119506e-15
40
0.99999999999999645
210
9.4978226494930414e-32
220
-3.4376050502381581e-16
230
1
100
AcDbArc
50
89.99999999999919
51
180
0
ARC
5
268
100
AcDbEntity
8
0
100
AcDbCircle
10
62.399999999999991
20
53
30
3.231348747223904e-15
40
0.99999999999999645
210
-9.299212383840267e-31
220
6.8752101004762915e-16
230
1
100
AcDbArc
50
-90
51
0
0
ARC
5
269
100
AcDbEntity
8
0
100
AcDbCircle
10
62.399999999999991
20
47
30
3.2313487472238914e-15
40
0.99999999999999645
210
1.4791141972894024e-30
220
-6.8752101004764384e-16
230
1
100
AcDbArc
50
0
51
90
0
ARC
5
270
100
AcDbEntity
8
0
100
AcDbCircle
10
4.6999999999999966
20
33.000000000000007
30
0
40
1.0000000000000053
210
-0
220
0
230
1
100
AcDbArc
50
270.00000000000023
51
360
0
ARC
5
271
100
AcDbEntity
8
0
100
AcDbCircle
10
10.700000000000006
20
33.000000000000007
30
0
40
1.0000000000000075
210
0
220
0
230
1
100
AcDbArc
50
180
51
269.99999999999972
0
ARC
5
272
100
AcDbEntity
8
0
100
AcDbCircle
10
24.699999999999992
20
33.000000000000014
30
0
40
1.0000000000000098
210
0
220
0
230
1
100
AcDbArc
50
270.00000000000063
51
360
0
ARC
5
273
100
AcDbEntity
8
0
100
AcDbCircle
10
30.700000000000006
20
33.000000000000014
30
0
40
1.0000000000000098
210
0
220
0
230
1
100
AcDbArc
50
180
51
269.9999999999996
0
ARC
5
274
100
AcDbEntity
8
0
100
AcDbCircle
10
44.700000000000017
20
32.999999999999993
30
0
40
0.99999999999999201
210
0
220
0
230
1
100
AcDbArc
50
-90.00000000000081
51
0
0
ARC
5
275
100
AcDbEntity
8
0
100
AcDbCircle
10
50.699999999999989
20
32.999999999999993
30
0
40
0.99999999999998757
210
0
220
0
230
1
100
AcDbArc
50
180
51
270.0000000000004
0
ARC
5
276
100
AcDbEntity
8
0
100
AcDbCircle
10
64.700000000000017
20
32.999999999999993
30
0
40
0.99999999999999201
210
0
220
0
230
1
100
AcDbArc
50
-90.00000000000081
51
0
0
ARC
5
277
100
AcDbEntity
8
0
100
AcDbCircle
10
70.699999999999989
20
32.999999999999993
30
0
40
0.99999999999999645
210
0
220
0
230
1
100
AcDbArc
50
180
51
270
0
ARC
5
278
100
AcDbEntity
8
0
100
AcDbCircle
10
84.700000000000003
20
33
30
0
40
0.99999999999999645
210
0
220
0
230
1
100
AcDbArc
50
-90
51
0
0
ARC
5
279
100
AcDbEntity
8
0
100
AcDbCircle
10
90.700000000000003
20
32.999999999999986
30
0
40
0.99999999999997868
210
0
220
0
230
1
100
AcDbArc
50
180
51
270
0
ARC
5
280
100
AcDbEntity
8
0
100
AcDbCircle
10
4.7000000000000055
20
66
30
0
40
0.99999999999999645
210
0
220
0
230
1
100
AcDbArc
50
-90.000000000000256
51
0
0
ARC
5
281
100
AcDbEntity
8
0
100
AcDbCircle
10
10.699999999999994
20
66
30
0
40
0.99999999999999534
210
0
220
0
230
1
100
AcDbArc
50
180
51
270.00000000000034
0
ARC
5
282
100
AcDbEntity
8
0
100
AcDbCircle
10
24.70000000000001
20
65.999999999999986
30
0
40
0.99999999999998757
210
0
220
0
230
1
100
AcDbArc
50
-90.000000000000398
51
0
0
ARC
5
283
100
AcDbEntity
8
0
100
AcDbCircle
10
30.699999999999989
20
65.999999999999986
30
0
40
0.99999999999999201
210
0
220
0
230
1
100
AcDbArc
50
180
51
270.00000000000063
0
ARC
5
284
100
AcDbEntity
8
0
100
AcDbCircle
10
44.700000000000003
20
66
30
0
40
0.99999999999999645
210
-0
220
0
230
1
100
AcDbArc
50
-90
51
0
0
ARC
5
285
100
AcDbEntity
8
0
100
AcDbCircle
10
50.699999999999996
20
66
30
0
40
0.99999999999999645
210
0
220
0
230
1
100
AcDbArc
50
180
51
270
0
ARC
5
286
100
AcDbEntity
8
0
100
AcDbCircle
10
64.700000000000003
20
66
30
0
40
0.99999999999999645
210
0
220
0
230
1
100
AcDbArc
50
-90
51
0
0
ARC
5
287
100
AcDbEntity
8
0
100
AcDbCircle
10
70.699999999999989
20
66
30
0
40
0.99999999999999645
210
0
220
0
230
1
100
AcDbArc
50
180
51
270
0
ARC
5
288
100
AcDbEntity
8
0
100
AcDbCircle
10
84.700000000000003
20
66
30
0
40
0.99999999999999645
210
-0
220
0
230
1
100
AcDbArc
50
-90
51
0
0
ARC
5
289
100
AcDbEntity
8
0
100
AcDbCircle
10
90.700000000000045
20
66.000000000000014
30
-1.0939368414561615e-16
40
1.0000000000000142
210
1.0939368414561438e-16
220
-1.5595920180117101e-31
230
1
100
AcDbArc
50
180
51
269.99999999999835
0
ARC
5
290
100
AcDbEntity
8
0
100
AcDbCircle
10
4.6999999999999957
20
33.999999999999993
30
0
40
1.0000000000000049
210
0
220
-0
230
1
100
AcDbArc
50
0
51
89.999999999999702
0
ARC
5
291
100
AcDbEntity
8
0
100
AcDbCircle
10
10.700000000000006
20
33.999999999999993
30
0
40
1.0000000000000053
210
0
220
0
230
1
100
AcDbArc
50
90.000000000000313
51
180
0
ARC
5
292
100
AcDbEntity
8
0
100
AcDbCircle
10
24.699999999999992
20
33.999999999999993
30
0
40
1.0000000000000098
210
0
220
-0
230
1
100
AcDbArc
50
0
51
89.999999999999389
0
ARC
5
293
100
AcDbEntity
8
0
100
AcDbCircle
10
30.700000000000006
20
33.999999999999993
30
0
40
1.0000000000000098
210
0
220
0
230
1
100
AcDbArc
50
90.000000000000398
51
180
0
ARC
5
294
100
AcDbEntity
8
0
100
AcDbCircle
10
44.700000000000017
20
34.000000000000007
30
0
40
0.99999999999998757
210
-0
220
0
230
1
100
AcDbArc
50
0
51
90.00000000000081
0
ARC
5
295
100
AcDbEntity
8
0
100
AcDbCircle
10
50.699999999999989
20
34.000000000000007
30
0
40
0.99999999999999201
210
0
220
-0
230
1
100
AcDbArc
50
89.999999999999588
51
180
0
ARC
5
296
100
AcDbEntity
8
0
100
AcDbCircle
10
64.700000000000017
20
34.000000000000007
30
0
40
0.99999999999998757
210
-0
220
0
230
1
100
AcDbArc
50
0
51
90.00000000000081
0
ARC
5
297
100
AcDbEntity
8
0
100
AcDbCircle
10
70.699999999999974
20
34.000000000000028
30
0
40
0.99999999999997868
210
0
220
-0
230
1
100
AcDbArc
50
89.99999999999919
51
180
0
ARC
5
298
100
AcDbEntity
8
0
100
AcDbCircle
10
84.700000000000003
20
34
30
0
40
0.99999999999999645
210
0
220
0
230
1
100
AcDbArc
50
0
51
90
0
ARC
5
299
100
AcDbEntity
8
0
100
AcDbCircle
10
90.700000000000045
20
33.999999999999993
30
-1.0939368414561573e-16
40
1.0000000000000098
210
1.0939368414561383e-16
220
5.257377511235082e-31
230
1
100
AcDbArc
50
90.000000000001634
51
180
0
ARC
5
300
100
AcDbEntity
8
0
100
AcDbCircle
10
34.000000000000014
20
53
30
2.2139069407962528e-15
40
0.99999999999999645
210
-4.9303806576313413e-31
220
-2.5447206216048881e-16
230
1
100
AcDbArc
50
-90
51
0
0
ARC
5
301
100
AcDbEntity
8
0
100
AcDbCircle
10
34.000000000000043
20
47.000000000000021
30
2.2139069407962429e-15
40
0.99999999999997424
210
-5.874962144816521e-30
220
2.5447206216048491e-16
230
1
100
AcDbArc
50
0
51
90.000000000001634
0
ARC
5
302
100
AcDbEntity
8
0
100
AcDbCircle
10
61.399999999999991
20
47
30
3.3289458927388704e-15
40
0.99999999999999645
210
-2.4651903288156707e-30
220
-5.8992386453266551e-16
230
1
100
AcDbArc
50
90
51
180
0
ARC
5
303
100
AcDbEntity
8
0
100
AcDbCircle
10
61.399999999999991
20
53
30
3.3289458927388676e-15
40
0.99999999999999645
210
-1.4791141972894024e-30
220
5.8992386453266719e-16
230
1
100
AcDbArc
50
180
51
270
0
ARC
5
304
100
AcDbEntity
8
0
100
AcDbCircle
10
34.000000000000014
20
58.70000000000001
30
2.9252506495172639e-15
40
0.99999999999999645
210
-3.0616473087294713e-16
220
-9.9361910775426952e-16
230
1
100
AcDbArc
50
0
51
90.000000000000398
0
ARC
5
305
100
AcDbEntity
8
0
100
AcDbCircle
10
61.399999999999991
20
58.700000000000003
30
-2.7112839182800748e-16
40
0.99999999999999645
210
1.2412593098161176e-15
220
3.5241560780198633e-16
230
1
100
AcDbArc
50
90
51
180
0
ARC
5
306
100
AcDbEntity
8
0
100
AcDbCircle
10
61.399999999999991
20
41.299999999999983
30
-3.3620135097330674e-17
40
0.99999999999999645
210
1.5407439555097941e-30
220
-5.8992386453266472e-16
230
1
100
AcDbArc
50
180
51
270
0
ARC
5
307
100
AcDbEntity
8
0
100
AcDbCircle
10
34
20
41.300000000000018
30
3.6643976951110343e-15
40
1.0000000000000142
210
-3.16325278311904e-30
220
2.5447206216049147e-16
230
1
100
AcDbArc
50
270.0000000000004
51
360
0
ENDSEC
0
SECTION
2
OBJECTS
0
DICTIONARY
5
C
100
AcDbDictionary
3
ACAD_GROUP
350
D
3
ACAD_MLINESTYLE
350
17
0
DICTIONARY
5
D
100
AcDbDictionary
0
DICTIONARY
5
1A
330
C
100
AcDbDictionary
0
DICTIONARY
5
17
100
AcDbDictionary
0
ENDSEC
0
EOF
