G04 EAGLE Gerber RS-274X export*
G75*
%MOMM*%
%FSLAX34Y34*%
%LPD*%
%INTop Silkscreen*%
%IPPOS*%
%AMOC8*
5,1,8,0,0,1.08239X$1,22.5*%
G01*
%ADD10C,0.127000*%


D10*
X5212Y14365D02*
X5212Y3686D01*
X5210Y3577D01*
X5204Y3468D01*
X5195Y3360D01*
X5181Y3252D01*
X5164Y3144D01*
X5142Y3037D01*
X5117Y2931D01*
X5088Y2826D01*
X5056Y2722D01*
X5020Y2620D01*
X4980Y2518D01*
X4936Y2419D01*
X4889Y2320D01*
X4839Y2224D01*
X4785Y2129D01*
X4728Y2036D01*
X4667Y1946D01*
X4603Y1858D01*
X4537Y1772D01*
X4467Y1688D01*
X4394Y1607D01*
X4318Y1529D01*
X4240Y1453D01*
X4159Y1380D01*
X4075Y1310D01*
X3989Y1244D01*
X3901Y1180D01*
X3810Y1119D01*
X3718Y1062D01*
X3623Y1008D01*
X3527Y958D01*
X3428Y911D01*
X3329Y867D01*
X3227Y827D01*
X3124Y791D01*
X3021Y759D01*
X2916Y730D01*
X2810Y705D01*
X2703Y683D01*
X2595Y666D01*
X2487Y652D01*
X2379Y643D01*
X2270Y637D01*
X2161Y635D01*
X635Y635D01*
X11955Y635D02*
X11955Y14365D01*
X11955Y635D02*
X18057Y635D01*
X26188Y635D02*
X29239Y635D01*
X26188Y635D02*
X26079Y637D01*
X25970Y643D01*
X25862Y652D01*
X25754Y666D01*
X25646Y683D01*
X25539Y705D01*
X25433Y730D01*
X25328Y759D01*
X25224Y791D01*
X25122Y827D01*
X25020Y867D01*
X24921Y911D01*
X24822Y958D01*
X24726Y1008D01*
X24631Y1062D01*
X24539Y1119D01*
X24448Y1180D01*
X24360Y1244D01*
X24274Y1310D01*
X24190Y1380D01*
X24109Y1453D01*
X24031Y1529D01*
X23955Y1607D01*
X23882Y1688D01*
X23812Y1772D01*
X23746Y1858D01*
X23682Y1946D01*
X23621Y2037D01*
X23564Y2129D01*
X23510Y2224D01*
X23460Y2320D01*
X23413Y2419D01*
X23369Y2518D01*
X23329Y2620D01*
X23293Y2722D01*
X23261Y2826D01*
X23232Y2931D01*
X23207Y3037D01*
X23185Y3144D01*
X23168Y3252D01*
X23154Y3360D01*
X23145Y3468D01*
X23139Y3577D01*
X23137Y3686D01*
X23137Y11314D01*
X23139Y11423D01*
X23145Y11532D01*
X23154Y11640D01*
X23168Y11748D01*
X23185Y11856D01*
X23207Y11963D01*
X23232Y12069D01*
X23261Y12174D01*
X23293Y12277D01*
X23329Y12380D01*
X23369Y12482D01*
X23413Y12581D01*
X23460Y12680D01*
X23510Y12776D01*
X23564Y12871D01*
X23621Y12963D01*
X23682Y13054D01*
X23746Y13142D01*
X23812Y13228D01*
X23882Y13312D01*
X23955Y13393D01*
X24031Y13471D01*
X24109Y13547D01*
X24190Y13620D01*
X24274Y13690D01*
X24360Y13756D01*
X24448Y13820D01*
X24538Y13881D01*
X24631Y13938D01*
X24726Y13992D01*
X24822Y14042D01*
X24921Y14089D01*
X25020Y14133D01*
X25122Y14173D01*
X25224Y14209D01*
X25328Y14241D01*
X25433Y14270D01*
X25539Y14295D01*
X25646Y14317D01*
X25754Y14334D01*
X25862Y14348D01*
X25970Y14357D01*
X26079Y14363D01*
X26188Y14365D01*
X29239Y14365D01*
X37612Y14365D02*
X37612Y3686D01*
X37611Y3686D02*
X37609Y3577D01*
X37603Y3468D01*
X37594Y3360D01*
X37580Y3252D01*
X37563Y3144D01*
X37541Y3037D01*
X37516Y2931D01*
X37487Y2826D01*
X37455Y2722D01*
X37419Y2620D01*
X37379Y2518D01*
X37335Y2419D01*
X37288Y2320D01*
X37238Y2224D01*
X37184Y2129D01*
X37127Y2036D01*
X37066Y1946D01*
X37002Y1858D01*
X36936Y1772D01*
X36866Y1688D01*
X36793Y1607D01*
X36717Y1529D01*
X36639Y1453D01*
X36558Y1380D01*
X36474Y1310D01*
X36388Y1244D01*
X36300Y1180D01*
X36209Y1119D01*
X36117Y1062D01*
X36022Y1008D01*
X35926Y958D01*
X35827Y911D01*
X35728Y867D01*
X35626Y827D01*
X35523Y791D01*
X35420Y759D01*
X35315Y730D01*
X35209Y705D01*
X35102Y683D01*
X34994Y666D01*
X34886Y652D01*
X34778Y643D01*
X34669Y637D01*
X34560Y635D01*
X33035Y635D01*
X44355Y635D02*
X44355Y14365D01*
X44355Y635D02*
X50457Y635D01*
X58588Y635D02*
X61639Y635D01*
X58588Y635D02*
X58479Y637D01*
X58370Y643D01*
X58262Y652D01*
X58154Y666D01*
X58046Y683D01*
X57939Y705D01*
X57833Y730D01*
X57728Y759D01*
X57624Y791D01*
X57522Y827D01*
X57420Y867D01*
X57321Y911D01*
X57222Y958D01*
X57126Y1008D01*
X57031Y1062D01*
X56939Y1119D01*
X56848Y1180D01*
X56760Y1244D01*
X56674Y1310D01*
X56590Y1380D01*
X56509Y1453D01*
X56431Y1529D01*
X56355Y1607D01*
X56282Y1688D01*
X56212Y1772D01*
X56146Y1858D01*
X56082Y1946D01*
X56021Y2037D01*
X55964Y2129D01*
X55910Y2224D01*
X55860Y2320D01*
X55813Y2419D01*
X55769Y2518D01*
X55729Y2620D01*
X55693Y2722D01*
X55661Y2826D01*
X55632Y2931D01*
X55607Y3037D01*
X55585Y3144D01*
X55568Y3252D01*
X55554Y3360D01*
X55545Y3468D01*
X55539Y3577D01*
X55537Y3686D01*
X55537Y11314D01*
X55539Y11423D01*
X55545Y11532D01*
X55554Y11640D01*
X55568Y11748D01*
X55585Y11856D01*
X55607Y11963D01*
X55632Y12069D01*
X55661Y12174D01*
X55693Y12277D01*
X55729Y12380D01*
X55769Y12482D01*
X55813Y12581D01*
X55860Y12680D01*
X55910Y12776D01*
X55964Y12871D01*
X56021Y12963D01*
X56082Y13054D01*
X56146Y13142D01*
X56212Y13228D01*
X56282Y13312D01*
X56355Y13393D01*
X56431Y13471D01*
X56509Y13547D01*
X56590Y13620D01*
X56674Y13690D01*
X56760Y13756D01*
X56848Y13820D01*
X56938Y13881D01*
X57031Y13938D01*
X57126Y13992D01*
X57222Y14042D01*
X57321Y14089D01*
X57420Y14133D01*
X57522Y14173D01*
X57624Y14209D01*
X57728Y14241D01*
X57833Y14270D01*
X57939Y14295D01*
X58046Y14317D01*
X58154Y14334D01*
X58262Y14348D01*
X58370Y14357D01*
X58479Y14363D01*
X58588Y14365D01*
X61639Y14365D01*
X70011Y14365D02*
X70011Y3686D01*
X70009Y3577D01*
X70003Y3468D01*
X69994Y3360D01*
X69980Y3252D01*
X69963Y3144D01*
X69941Y3037D01*
X69916Y2931D01*
X69887Y2826D01*
X69855Y2722D01*
X69819Y2620D01*
X69779Y2518D01*
X69735Y2419D01*
X69688Y2320D01*
X69638Y2224D01*
X69584Y2129D01*
X69527Y2036D01*
X69466Y1946D01*
X69402Y1858D01*
X69336Y1772D01*
X69266Y1688D01*
X69193Y1607D01*
X69117Y1529D01*
X69039Y1453D01*
X68958Y1380D01*
X68874Y1310D01*
X68788Y1244D01*
X68700Y1180D01*
X68609Y1119D01*
X68517Y1062D01*
X68422Y1008D01*
X68326Y958D01*
X68227Y911D01*
X68128Y867D01*
X68026Y827D01*
X67923Y791D01*
X67820Y759D01*
X67715Y730D01*
X67609Y705D01*
X67502Y683D01*
X67394Y666D01*
X67286Y652D01*
X67178Y643D01*
X67069Y637D01*
X66960Y635D01*
X65435Y635D01*
X76755Y635D02*
X76755Y14365D01*
X76755Y635D02*
X82857Y635D01*
X90988Y635D02*
X94039Y635D01*
X90988Y635D02*
X90879Y637D01*
X90770Y643D01*
X90662Y652D01*
X90554Y666D01*
X90446Y683D01*
X90339Y705D01*
X90233Y730D01*
X90128Y759D01*
X90024Y791D01*
X89922Y827D01*
X89820Y867D01*
X89721Y911D01*
X89622Y958D01*
X89526Y1008D01*
X89431Y1062D01*
X89339Y1119D01*
X89248Y1180D01*
X89160Y1244D01*
X89074Y1310D01*
X88990Y1380D01*
X88909Y1453D01*
X88831Y1529D01*
X88755Y1607D01*
X88682Y1688D01*
X88612Y1772D01*
X88546Y1858D01*
X88482Y1946D01*
X88421Y2037D01*
X88364Y2129D01*
X88310Y2224D01*
X88260Y2320D01*
X88213Y2419D01*
X88169Y2518D01*
X88129Y2620D01*
X88093Y2722D01*
X88061Y2826D01*
X88032Y2931D01*
X88007Y3037D01*
X87985Y3144D01*
X87968Y3252D01*
X87954Y3360D01*
X87945Y3468D01*
X87939Y3577D01*
X87937Y3686D01*
X87937Y11314D01*
X87939Y11423D01*
X87945Y11532D01*
X87954Y11640D01*
X87968Y11748D01*
X87985Y11856D01*
X88007Y11963D01*
X88032Y12069D01*
X88061Y12174D01*
X88093Y12277D01*
X88129Y12380D01*
X88169Y12482D01*
X88213Y12581D01*
X88260Y12680D01*
X88310Y12776D01*
X88364Y12871D01*
X88421Y12963D01*
X88482Y13054D01*
X88546Y13142D01*
X88612Y13228D01*
X88682Y13312D01*
X88755Y13393D01*
X88831Y13471D01*
X88909Y13547D01*
X88990Y13620D01*
X89074Y13690D01*
X89160Y13756D01*
X89248Y13820D01*
X89338Y13881D01*
X89431Y13938D01*
X89526Y13992D01*
X89622Y14042D01*
X89721Y14089D01*
X89820Y14133D01*
X89922Y14173D01*
X90024Y14209D01*
X90128Y14241D01*
X90233Y14270D01*
X90339Y14295D01*
X90446Y14317D01*
X90554Y14334D01*
X90662Y14348D01*
X90770Y14357D01*
X90879Y14363D01*
X90988Y14365D01*
X94039Y14365D01*
X102411Y14365D02*
X102411Y3686D01*
X102409Y3577D01*
X102403Y3468D01*
X102394Y3360D01*
X102380Y3252D01*
X102363Y3144D01*
X102341Y3037D01*
X102316Y2931D01*
X102287Y2826D01*
X102255Y2722D01*
X102219Y2620D01*
X102179Y2518D01*
X102135Y2419D01*
X102088Y2320D01*
X102038Y2224D01*
X101984Y2129D01*
X101927Y2036D01*
X101866Y1946D01*
X101802Y1858D01*
X101736Y1772D01*
X101666Y1688D01*
X101593Y1607D01*
X101517Y1529D01*
X101439Y1453D01*
X101358Y1380D01*
X101274Y1310D01*
X101188Y1244D01*
X101100Y1180D01*
X101009Y1119D01*
X100917Y1062D01*
X100822Y1008D01*
X100726Y958D01*
X100627Y911D01*
X100528Y867D01*
X100426Y827D01*
X100323Y791D01*
X100220Y759D01*
X100115Y730D01*
X100009Y705D01*
X99902Y683D01*
X99794Y666D01*
X99686Y652D01*
X99578Y643D01*
X99469Y637D01*
X99360Y635D01*
X97835Y635D01*
X109155Y635D02*
X109155Y14365D01*
X109155Y635D02*
X115257Y635D01*
X123388Y635D02*
X126439Y635D01*
X123388Y635D02*
X123279Y637D01*
X123170Y643D01*
X123062Y652D01*
X122954Y666D01*
X122846Y683D01*
X122739Y705D01*
X122633Y730D01*
X122528Y759D01*
X122424Y791D01*
X122322Y827D01*
X122220Y867D01*
X122121Y911D01*
X122022Y958D01*
X121926Y1008D01*
X121831Y1062D01*
X121739Y1119D01*
X121648Y1180D01*
X121560Y1244D01*
X121474Y1310D01*
X121390Y1380D01*
X121309Y1453D01*
X121231Y1529D01*
X121155Y1607D01*
X121082Y1688D01*
X121012Y1772D01*
X120946Y1858D01*
X120882Y1946D01*
X120821Y2037D01*
X120764Y2129D01*
X120710Y2224D01*
X120660Y2320D01*
X120613Y2419D01*
X120569Y2518D01*
X120529Y2620D01*
X120493Y2722D01*
X120461Y2826D01*
X120432Y2931D01*
X120407Y3037D01*
X120385Y3144D01*
X120368Y3252D01*
X120354Y3360D01*
X120345Y3468D01*
X120339Y3577D01*
X120337Y3686D01*
X120337Y11314D01*
X120339Y11423D01*
X120345Y11532D01*
X120354Y11640D01*
X120368Y11748D01*
X120385Y11856D01*
X120407Y11963D01*
X120432Y12069D01*
X120461Y12174D01*
X120493Y12277D01*
X120529Y12380D01*
X120569Y12482D01*
X120613Y12581D01*
X120660Y12680D01*
X120710Y12776D01*
X120764Y12871D01*
X120821Y12963D01*
X120882Y13054D01*
X120946Y13142D01*
X121012Y13228D01*
X121082Y13312D01*
X121155Y13393D01*
X121231Y13471D01*
X121309Y13547D01*
X121390Y13620D01*
X121474Y13690D01*
X121560Y13756D01*
X121648Y13820D01*
X121738Y13881D01*
X121831Y13938D01*
X121926Y13992D01*
X122022Y14042D01*
X122121Y14089D01*
X122220Y14133D01*
X122322Y14173D01*
X122424Y14209D01*
X122528Y14241D01*
X122633Y14270D01*
X122739Y14295D01*
X122846Y14317D01*
X122954Y14334D01*
X123062Y14348D01*
X123170Y14357D01*
X123279Y14363D01*
X123388Y14365D01*
X126439Y14365D01*
M02*
